<svg xmlns="http://www.w3.org/2000/svg" xmlns:xlink="http://www.w3.org/1999/xlink" width="1080" height="1080" style="width:100%;height:100%;transform:translate3d(0,0,0);content-visibility:visible"><defs><mask id="cn" mask-type="alpha"><use xlink:href="#a"/></mask><mask id="cl" mask-type="alpha"><g filter="url(#b)"><use xlink:href="#c"/></g></mask><mask id="ck" mask-type="alpha"><use xlink:href="#d"/></mask><mask id="cj" mask-type="alpha"><use xlink:href="#e"/></mask><mask id="ch" mask-type="alpha"><g filter="url(#f)"><use xlink:href="#g"/></g></mask><mask id="cf" mask-type="alpha"><use xlink:href="#h"/></mask><mask id="cd" mask-type="alpha"><g filter="url(#i)"><use xlink:href="#j"/></g></mask><mask id="cc" mask-type="alpha"><use xlink:href="#k"/></mask><mask id="cb" mask-type="alpha"><use xlink:href="#l"/></mask><mask id="bZ" mask-type="alpha"><g filter="url(#m)"><use xlink:href="#n"/></g></mask><mask id="bX" mask-type="alpha"><use xlink:href="#o"/></mask><mask id="bV" mask-type="alpha"><g filter="url(#p)"><use xlink:href="#q"/></g></mask><mask id="bU" mask-type="alpha"><use xlink:href="#r"/></mask><mask id="bT" mask-type="alpha"><use xlink:href="#s"/></mask><mask id="bR" mask-type="alpha"><g filter="url(#t)"><use xlink:href="#u"/></g></mask><mask id="bH" mask-type="alpha"><use xlink:href="#v"/></mask><mask id="bG" mask-type="alpha"><use xlink:href="#w"/></mask><mask id="bE" mask-type="alpha"><use xlink:href="#x"/></mask><mask id="bD" mask-type="alpha"><use xlink:href="#y"/></mask><mask id="bB" mask-type="alpha"><use xlink:href="#z"/></mask><mask id="bA" mask-type="alpha"><use xlink:href="#A"/></mask><mask id="by" mask-type="alpha"><use xlink:href="#B"/></mask><mask id="bx" mask-type="alpha"><use xlink:href="#C"/></mask><mask id="bu" mask-type="alpha"><use xlink:href="#D"/></mask><mask id="bv" mask-type="alpha"><use xlink:href="#E"/></mask><mask id="br" mask-type="alpha"><use xlink:href="#F"/></mask><mask id="bs" mask-type="alpha"><use xlink:href="#G"/></mask><mask id="bo" mask-type="alpha"><use xlink:href="#H"/></mask><mask id="bp" mask-type="alpha"><use xlink:href="#I"/></mask><mask id="bl" mask-type="alpha"><use xlink:href="#J"/></mask><mask id="bm" mask-type="alpha"><use xlink:href="#K"/></mask><mask id="bh" mask-type="alpha"><use xlink:href="#L"/></mask><mask id="bd" mask-type="alpha"><use xlink:href="#M"/></mask><mask id="aZ" mask-type="alpha"><use xlink:href="#N"/></mask><mask id="aX" mask-type="alpha"><use xlink:href="#O"/></mask><mask id="aW" mask-type="alpha"><use xlink:href="#P"/></mask><mask id="aV" mask-type="alpha"><use xlink:href="#Q"/></mask><mask id="aT" mask-type="alpha"><use xlink:href="#R"/></mask><mask id="aS" mask-type="alpha"><use xlink:href="#S"/></mask><mask id="aR" mask-type="alpha"><use xlink:href="#T"/></mask><mask id="aP" mask-type="alpha"><use xlink:href="#U"/></mask><mask id="aO" mask-type="alpha"><use xlink:href="#V"/></mask><mask id="aN" mask-type="alpha"><use xlink:href="#W"/></mask><mask id="aL" mask-type="alpha"><use xlink:href="#X"/></mask><mask id="aK" mask-type="alpha"><use xlink:href="#Y"/></mask><mask id="aJ" mask-type="alpha"><use xlink:href="#Z"/></mask><mask id="aG" mask-type="alpha"><use xlink:href="#aa"/></mask><mask id="aF" mask-type="alpha"><use xlink:href="#ab"/></mask><mask id="aE" mask-type="alpha"><use xlink:href="#ac"/></mask><mask id="aC" mask-type="alpha"><use xlink:href="#ad"/></mask><mask id="az" mask-type="alpha"><use xlink:href="#ae"/></mask><mask id="ay" mask-type="alpha"><use xlink:href="#af"/></mask><mask id="ax" mask-type="alpha"><use xlink:href="#ag"/></mask><mask id="av" mask-type="alpha"><use xlink:href="#ah"/></mask><mask id="as" mask-type="alpha"><use xlink:href="#ai"/></mask><mask id="ar" mask-type="alpha"><use xlink:href="#aj"/></mask><mask id="aq" mask-type="alpha"><use xlink:href="#ak"/></mask><mask id="ao" mask-type="alpha"><use xlink:href="#al"/></mask><clipPath id="am"><path d="M0 0h1080v1080H0z"/></clipPath><clipPath id="cg"><path d="M0 0h1920v1079H0z"/></clipPath><clipPath id="cm"><path d="M0 0h1920v1079H0z"/></clipPath><clipPath id="ci"><path d="M0 0h1920v1079H0z"/></clipPath><clipPath id="bY"><path d="M0 0h1920v1079H0z"/></clipPath><clipPath id="ce"><path d="M0 0h1920v1079H0z"/></clipPath><clipPath id="ca"><path d="M0 0h1920v1079H0z"/></clipPath><clipPath id="bQ"><path d="M0 0h1920v1079H0z"/></clipPath><clipPath id="bW"><path d="M0 0h1920v1079H0z"/></clipPath><clipPath id="bS"><path d="M0 0h1920v1079H0z"/></clipPath><clipPath id="bP"><path d="M0 0h1920v1079H0z"/></clipPath><clipPath id="bO"><path d="M0 0h1920v1079H0z"/></clipPath><clipPath id="bN"><path d="M0 0h1920v1079H0z"/></clipPath><clipPath id="bM"><path d="M0 0h1920v1079H0z"/></clipPath><clipPath id="bL"><path d="M0 0h1920v1079H0z"/></clipPath><clipPath id="bK"><path d="M0 0h1920v1079H0z"/></clipPath><clipPath id="bJ"><path d="M0 0h1920v1079H0z"/></clipPath><clipPath id="bI"><path d="M0 0h1920v1079H0z"/></clipPath><clipPath id="bF"><path d="M0 0h1920v1079H0z"/></clipPath><clipPath id="bC"><path d="M0 0h1920v1079H0z"/></clipPath><clipPath id="bz"><path d="M0 0h1920v1079H0z"/></clipPath><clipPath id="bw"><path d="M0 0h1920v1079H0z"/></clipPath><clipPath id="bt"><path d="M0 0h1920v1079H0z"/></clipPath><clipPath id="bq"><path d="M0 0h1920v1079H0z"/></clipPath><clipPath id="bn"><path d="M0 0h1920v1079H0z"/></clipPath><clipPath id="bk"><path d="M0 0h1920v1079H0z"/></clipPath><clipPath id="bg"><path d="M0 0h1920v1079H0z"/></clipPath><clipPath id="bi"><path d="M0 0h1920v1079H0z"/></clipPath><clipPath id="bc"><path d="M0 0h1920v1079H0z"/></clipPath><clipPath id="be"><path d="M0 0h1920v1079H0z"/></clipPath><clipPath id="aY"><path d="M0 0h1920v1079H0z"/></clipPath><clipPath id="ba"><path d="M0 0h1920v1079H0z"/></clipPath><clipPath id="aU"><path d="M0 0h1920v1079H0z"/></clipPath><clipPath id="aQ"><path d="M0 0h1920v1079H0z"/></clipPath><clipPath id="aM"><path d="M0 0h1920v1079H0z"/></clipPath><clipPath id="aI"><path d="M0 0h1920v1079H0z"/></clipPath><clipPath id="aB"><path d="M0 0h1920v1079H0z"/></clipPath><clipPath id="aH"><path d="M0 0h1920v1079H0z"/></clipPath><clipPath id="aD"><path d="M0 0h1920v1079H0z"/></clipPath><clipPath id="au"><path d="M0 0h1920v1079H0z"/></clipPath><clipPath id="aA"><path d="M0 0h1920v1079H0z"/></clipPath><clipPath id="aw"><path d="M0 0h1920v1079H0z"/></clipPath><clipPath id="an"><path d="M0 0h1920v1079H0z"/></clipPath><clipPath id="at"><path d="M0 0h1920v1079H0z"/></clipPath><clipPath id="ap"><path d="M0 0h1920v1079H0z"/></clipPath><path fill="#DB8D74" d="M521.5 303c-16.5 11-42 12.5-66 13.5s-53.834 22.53-51 52c2.5 26 27.5 43 54.5 43.5 30.012.556 61-2.5 100.5-24s36.5-55.5 23.5-77-45-19-61.5-8z" transform="rotate(-6 6207.043 -8631.536)" style="display:block" id="e"/><path fill="#DB8D74" d="M521.5 303c-16.5 11-42 12.5-66 13.5s-53.834 22.53-51 52c2.5 26 27.5 43 54.5 43.5 30.012.556 61-2.5 100.5-24s36.5-55.5 23.5-77-45-19-61.5-8z" transform="rotate(-10 4091.52 -4911.194)" style="display:block" id="l"/><path fill="#DB8D74" d="M482.763 275.603c-62.54 10.163-70.236 76.625-62.591 127.106 8.645 49.929 23.159 76.255 59.745 71.089 30.143-4.48 46.95-27.825 42.718-65.137-4.113-34.11 2.888-55.598 6.279-76.482 5.387-32.209-15.527-60.714-46.15-56.576z" transform="rotate(35.667 107.154 2195.246)" style="display:block" id="o"/><path fill="#DB8D74" d="M521.5 303c-16.5 11-42 12.5-66 13.5s-53.834 22.53-51 52c2.5 26 27.5 43 54.5 43.5 30.012.556 61-2.5 100.5-24s36.5-55.5 23.5-77-45-19-61.5-8z" transform="translate(975 551.5)" style="display:block" id="s"/><path fill="#FFCBA3" d="M208.585-408.855c-7.835-3.645-36.835-2.645-50.532 21.238-12.377 21.58-5.057 49.093 16.487 61.532 0 0 2.21 1.585 4.192 2.604C165-376.5 201.25-403.25 213.777-407.001c-1.277-.999-5.192-1.854-5.192-1.854z" transform="rotate(.02 -2326156.838 4082455.061)" style="display:block" id="v"/><path fill="#B23232" d="m181.611-391.64 1.47 3.198c1.386 3.013.04 6.561-3.004 7.925-3.045 1.363-6.635.025-8.02-2.989l-1.47-3.198c-1.386-3.014-.041-6.561 3.004-7.925 3.044-1.363 6.635-.026 8.02 2.988z" transform="rotate(.02 -2326156.838 4082455.061)" style="display:block" id="w"/><path fill="#FFCBA3" d="M208.585-408.855c-7.835-3.645-36.835-2.645-50.532 21.238-12.377 21.58-5.057 49.093 16.487 61.532 0 0 2.21 1.585 4.192 2.604C165-376.5 201.25-403.25 213.777-407.001c-1.277-.999-5.192-1.854-5.192-1.854z" transform="rotate(.122 -277008.028 487189.666)" style="display:block" id="x"/><path fill="#B23232" d="m181.276-391.679 1.515 3.175a5.977 5.977 0 0 1-2.857 7.985c-3.005 1.418-6.598.142-8.026-2.85l-1.515-3.175a5.977 5.977 0 0 1 2.856-7.984c3.006-1.419 6.599-.143 8.027 2.849z" transform="rotate(.122 -277008.028 487189.666)" style="display:block" id="y"/><path fill="#FFCBA3" d="M208.585-408.855c-7.835-3.645-36.835-2.645-50.532 21.238-12.377 21.58-5.057 49.093 16.487 61.532 0 0 2.21 1.585 4.192 2.604C165-376.5 201.25-403.25 213.777-407.001c-1.277-.999-5.192-1.854-5.192-1.854z" transform="rotate(1.568 -20927.52 37851.114)" style="display:block" id="z"/><path fill="#B23232" d="m184.23-391.34 1.119 3.378c1.054 3.184-.808 6.524-4.159 7.46-3.35.936-6.92-.888-7.975-4.072l-1.118-3.378c-1.054-3.185.808-6.524 4.158-7.46 3.35-.936 6.921.887 7.975 4.071z" transform="rotate(1.568 -20927.52 37851.114)" style="display:block" id="A"/><path fill="#FFCBA3" d="M208.585-408.855c-7.835-3.645-36.835-2.645-50.532 21.238-12.377 21.58-5.057 49.093 16.487 61.532 0 0 2.21 1.585 4.192 2.604C165-376.5 201.25-403.25 213.777-407.001c-1.277-.999-5.192-1.854-5.192-1.854z" transform="rotate(1.568 -20927.273 37851.03)" style="display:block" id="B"/><path fill="#B23232" d="m184.225-391.341 1.12 3.378c1.054 3.183-.807 6.524-4.156 7.46-3.35.938-6.921-.885-7.976-4.069l-1.12-3.378c-1.053-3.184.808-6.524 4.157-7.46 3.35-.938 6.921.884 7.975 4.069z" transform="rotate(1.568 -20927.273 37851.03)" style="display:block" id="C"/><path fill="#58CC02" d="M318.202-45.464c15.252 94.999-31.572 144.035-95.655 159.537-84.448 20.428-134.794-43.146-151.05-96.71C16-165.5 158.631-177.933 166.59-174.39a21.642 21.642 0 0 0 13.898 1.277c13.72-3.334 29.364-13.462 52.062-24.71 28.634-14.19 72.547 1.407 71.323 40.679 0 0 5.505 56.717 14.329 111.68zm-15 4c15.252 94.999-16.572 140.035-80.655 155.537-84.448 20.428-144.155-35.09-168.05-85.71C36.399-9.976 31.209-79.308 31.209-79.308c-2.443-42.408 8.57-88.445 47.15-106.222 17.568-8.095 35.66-11.367 49.816-6.28 21.939 7.884 30.456 13.877 38.415 17.42 4.363 1.942 127.788 77.963 136.612 132.926z" transform="rotate(-2.646 13776.4 -22136.3)" style="display:block" id="E"/><path fill="#58CC02" d="M318.202-45.464c15.252 94.999-31.572 144.035-95.655 159.537-84.448 20.428-134.794-43.146-151.05-96.71C16-165.5 158.631-177.933 166.59-174.39a21.642 21.642 0 0 0 13.898 1.277c13.72-3.334 29.364-13.462 52.062-24.71 28.634-14.19 72.547 1.407 71.323 40.679 0 0 5.505 56.717 14.329 111.68zm-15 4c15.252 94.999-16.572 140.035-80.655 155.537-84.448 20.428-144.155-35.09-168.05-85.71C36.399-9.976 31.209-79.308 31.209-79.308c-2.443-42.408 8.57-88.445 47.15-106.222 17.568-8.095 35.66-11.367 49.816-6.28 21.939 7.884 30.456 13.877 38.415 17.42 4.363 1.942 127.788 77.963 136.612 132.926z" transform="rotate(-2.206 16296.384 -26588.583)" style="display:block" id="G"/><path fill="#58CC02" d="M318.202-45.464c15.252 94.999-31.572 144.035-95.655 159.537-84.448 20.428-134.794-43.146-151.05-96.71C16-165.5 158.631-177.933 166.59-174.39a21.642 21.642 0 0 0 13.898 1.277c13.72-3.334 29.364-13.462 52.062-24.71 28.634-14.19 72.547 1.407 71.323 40.679 0 0 5.505 56.717 14.329 111.68zm-15 4c15.252 94.999-16.572 140.035-80.655 155.537-84.448 20.428-144.155-35.09-168.05-85.71C36.399-9.976 31.209-79.308 31.209-79.308c-2.443-42.408 8.57-88.445 47.15-106.222 17.568-8.095 35.66-11.367 49.816-6.28 21.939 7.884 30.456 13.877 38.415 17.42 4.363 1.942 127.788 77.963 136.612 132.926z" transform="rotate(-2.989 12395.394 -19598.074)" style="display:block" id="I"/><path fill="#58CC02" d="M318.202-45.464c15.252 94.999-31.572 144.035-95.655 159.537-84.448 20.428-134.794-43.146-151.05-96.71C16-165.5 158.631-177.933 166.59-174.39a21.642 21.642 0 0 0 13.898 1.277c13.72-3.334 29.364-13.462 52.062-24.71 28.634-14.19 72.547 1.407 71.323 40.679 0 0 5.505 56.717 14.329 111.68zm-15 4c15.252 94.999-16.572 140.035-80.655 155.537-84.448 20.428-144.155-35.09-168.05-85.71C36.399-9.976 31.209-79.308 31.209-79.308c-2.443-42.408 8.57-88.445 47.15-106.222 17.568-8.095 35.66-11.367 49.816-6.28 21.939 7.884 30.456 13.877 38.415 17.42 4.363 1.942 127.788 77.963 136.612 132.926z" transform="rotate(-2.985 12394.635 -19619.16)" style="display:block" id="K"/><path fill="#FFC7B8" d="M552.811-154.957c-14.873-8.982-34.962-11.237-52.179-1.891l-28.256 15.339a51.11 51.11 0 0 0-25.616 34.316l-7.98 37.63C434.57-49.714 440-30 458.986-17.428 477.972-4.856 510.5 12 528.501 43.852c6.897 12.204 42.974 11.603 54.934 7.15l38.691-9.376A38.335 38.335 0 0 0 651.93 8.839l6.319-51.72c-.568-6.318-6.973-19.296-11.519-26.102C621-107.5 590-132.5 552.811-154.957z" transform="rotate(-6.013 6499.197 -9117.922)" style="display:block" id="L"/><path fill="#FFC7B8" d="M552.811-154.957c-14.873-8.982-34.962-11.237-52.179-1.891l-28.256 15.339a51.11 51.11 0 0 0-25.616 34.316l-7.98 37.63C434.57-49.714 440-30 458.986-17.428 477.972-4.856 510.5 12 528.501 43.852c6.897 12.204 42.974 11.603 54.934 7.15l38.691-9.376A38.335 38.335 0 0 0 651.93 8.839l6.319-51.72c-.568-6.318-6.973-19.296-11.519-26.102C621-107.5 590-132.5 552.811-154.957z" transform="rotate(-6.966 5759.877 -7826.362)" style="display:block" id="M"/><path fill="#FFC7B8" d="M552.811-154.957c-14.873-8.982-34.962-11.237-52.179-1.891l-28.256 15.339a51.11 51.11 0 0 0-25.616 34.316l-7.98 37.63C434.57-49.714 440-30 458.986-17.428 477.972-4.856 510.5 12 528.501 43.852c6.897 12.204 42.974 11.603 54.934 7.15l38.691-9.376A38.335 38.335 0 0 0 651.93 8.839l6.319-51.72c-.568-6.318-6.973-19.296-11.519-26.102C621-107.5 590-132.5 552.811-154.957z" transform="rotate(-6.966 5759.878 -7826.362)" style="display:block" id="N"/><path fill="#CC348D" d="M745.232-224.137c-.304-28.44 22.505-51.741 50.945-52.045 28.44-.304 51.741 22.506 52.045 50.946.304 28.44-22.505 51.74-50.945 52.044-28.44.304-51.741-22.505-52.045-50.945z" transform="rotate(-3.225 11773.017 -18195.726)" style="display:block" id="O"/><path fill="#0084C2" d="M732.862-124.382c4.759-25.473 29.266-42.264 54.739-37.505s42.265 29.265 37.506 54.738-29.266 42.265-54.739 37.506-42.265-29.266-37.506-54.739z" transform="rotate(3.225 -9135.546 18467.86)" style="display:block" id="P"/><path fill="#AFD5E0" d="M750.527-172.52c-2.856 6.832 153.036 310.917-59.97 264.614s1.1-278.504 4.916-287.632c3.816-9.128 19.234-11.375 34.437-5.019 15.203 6.356 24.433 18.909 20.617 28.037z" transform="rotate(-6.449 6505.285 -9054.674)" style="display:block" id="Q"/><path fill="#CC348D" d="M745.232-224.137c-.304-28.44 22.505-51.741 50.945-52.045 28.44-.304 51.741 22.506 52.045 50.946.304 28.44-22.505 51.74-50.945 52.044-28.44.304-51.741-22.505-52.045-50.945z" transform="rotate(-2.33 15794.058 -25247.48)" style="display:block" id="R"/><path fill="#0084C2" d="M732.862-124.382c4.759-25.473 29.266-42.264 54.739-37.505s42.265 29.265 37.506 54.738-29.266 42.265-54.739 37.506-42.265-29.266-37.506-54.739z" transform="rotate(2.33 -13155.481 25520.213)" style="display:block" id="S"/><path fill="#AFD5E0" d="M750.527-172.52c-2.856 6.832 153.036 310.917-59.97 264.614s1.1-278.504 4.916-287.632c3.816-9.128 19.234-11.375 34.437-5.019 15.203 6.356 24.433 18.909 20.617 28.037z" transform="rotate(-4.661 8518.36 -12584.616)" style="display:block" id="T"/><path fill="#CC348D" d="M745.232-224.137c-.304-28.44 22.505-51.741 50.945-52.045 28.44-.304 51.741 22.506 52.045 50.946.304 28.44-22.505 51.74-50.945 52.044-28.44.304-51.741-22.505-52.045-50.945z" transform="rotate(-5.989 6934.078 -9712.103)" style="display:block" id="U"/><path fill="#0084C2" d="M732.862-124.382c4.759-25.473 29.266-42.264 54.739-37.505s42.265 29.265 37.506 54.738-29.266 42.265-54.739 37.506-42.265-29.266-37.506-54.739z" transform="rotate(5.989 -4300.438 9982.162)" style="display:block" id="V"/><path fill="#AFD5E0" d="M750.527-172.52c-2.856 6.832 153.036 310.917-59.97 264.614s1.1-278.504 4.916-287.632c3.816-9.128 19.234-11.375 34.437-5.019 15.203 6.356 24.433 18.909 20.617 28.037z" transform="rotate(-11.978 4080.432 -4797.177)" style="display:block" id="W"/><path fill="#CC348D" d="M745.232-224.137c-.304-28.44 22.505-51.741 50.945-52.045 28.44-.304 51.741 22.506 52.045 50.946.304 28.44-22.505 51.74-50.945 52.044-28.44.304-51.741-22.505-52.045-50.945z" transform="rotate(-5.989 6934.078 -9712.103)" style="display:block" id="X"/><path fill="#0084C2" d="M732.862-124.382c4.759-25.473 29.266-42.264 54.739-37.505s42.265 29.265 37.506 54.738-29.266 42.265-54.739 37.506-42.265-29.266-37.506-54.739z" transform="rotate(5.989 -4300.438 9982.162)" style="display:block" id="Y"/><path fill="#AFD5E0" d="M750.527-172.52c-2.856 6.832 153.036 310.917-59.97 264.614s1.1-278.504 4.916-287.632c3.816-9.128 19.234-11.375 34.437-5.019 15.203 6.356 24.433 18.909 20.617 28.037z" transform="rotate(-11.976 4080.956 -4798.09)" style="display:block" id="Z"/><path fill="#FFF" d="M638.033-169.849c-41.207 112.587-110.385 302.331-170.99 469.348-11.827 32.594-21.429 51.144-71.04 55.59-84.82 7.601-163.41 13.29-252.041 16.588-15.917.592-33.228-11.412-36.908-42.619-14.53-123.235-31.678-302.891-47.058-481.524-2.828-32.845 23.041-69.646 70.892-70.091 112.027-1.042 349.193-14.511 455.264-10.36 34.205 1.339 62.292 34.624 51.881 63.068z" transform="rotate(-145 914.887 215.665) scale(.5)" style="display:block" id="aa"/><path fill="#FFF" d="M615.125 597.383S518.546 449.096 506.719 481.69c-11.827 32.594-61.105-131.047-110.716-126.601-84.82 7.601-163.41 13.29-252.041 16.588-15.917.592-33.228-11.412-36.908-42.619-14.53-123.235-31.678-302.891-47.058-481.524-2.828-32.845 23.041-69.646 70.892-70.091 112.027-1.042 349.193-14.511 455.264-10.36 34.205 1.339 62.292 34.624 51.881 63.068C596.826-57.262 923.151 9.427 923.151 9.427s83.359 177.85 82.666 179.759c-.334.919-390.692 408.197-390.692 408.197z" transform="rotate(-145 914.887 215.665) scale(.5)" style="display:block" id="ad"/><path fill="#FFF" d="M412.599 78.212c-6.132 3.04-7.257 9.111-7.45 10.036l-2.078 9.955c-.804 3.852 1.678 7.626 5.543 8.43l7.348 1.528c7.924 1.648 15.683-3.417 17.331-11.313.495-2.371 3.308-16.424 3.308-16.424s-16.193-6.083-24.002-2.212zm-14.702-3.734c3.902 5.915 3.593 9.268 3.279 11.761-.411 3.262-1.961 10.655-1.961 10.655-.863 4.124-4.939 6.767-9.102 5.904l-7.271-1.508c-8.179-1.696-13.434-9.638-11.738-17.74.661-3.158 3.897-16.189 3.897-16.189s19.186 1.492 22.896 7.117z" transform="rotate(-.773 44097.058 -72757.563)" style="display:block" id="ab"/><path fill="#FFF" d="M412.599 78.212c-6.132 3.04-7.257 9.111-7.45 10.036l-2.078 9.955c-.804 3.852 1.678 7.626 5.543 8.43l7.348 1.528c7.924 1.648 15.683-3.417 17.331-11.313.495-2.371 3.308-16.424 3.308-16.424s-16.193-6.083-24.002-2.212zm-14.702-3.734c3.902 5.915 3.593 9.268 3.279 11.761-.411 3.262-1.961 10.655-1.961 10.655-.863 4.124-4.939 6.767-9.102 5.904l-7.271-1.508c-8.179-1.696-13.434-9.638-11.738-17.74.661-3.158 3.897-16.189 3.897-16.189s19.186 1.492 22.896 7.117z" transform="rotate(-.773 44097.058 -72757.563)" style="display:block" id="ac"/><path fill="#FFF" d="M638.033-169.849c-41.207 112.587-110.385 302.331-170.99 469.348-11.827 32.594-21.429 51.144-71.04 55.59-84.82 7.601-163.41 13.29-252.041 16.588-15.917.592-33.228-11.412-36.908-42.619-14.53-123.235-31.678-302.891-47.058-481.524-2.828-32.845 23.041-69.646 70.892-70.091 112.027-1.042 349.193-14.511 455.264-10.36 34.205 1.339 62.292 34.624 51.881 63.068z" transform="rotate(-145 914.887 215.665) scale(.5)" style="display:block" id="ae"/><path fill="#FFF" d="M615.125 597.383S518.546 449.096 506.719 481.69c-11.827 32.594-61.105-131.047-110.716-126.601-84.82 7.601-163.41 13.29-252.041 16.588-15.917.592-33.228-11.412-36.908-42.619-14.53-123.235-31.678-302.891-47.058-481.524-2.828-32.845 23.041-69.646 70.892-70.091 112.027-1.042 349.193-14.511 455.264-10.36 34.205 1.339 62.292 34.624 51.881 63.068C596.826-57.262 923.151 9.427 923.151 9.427s83.359 177.85 82.666 179.759c-.334.919-390.692 408.197-390.692 408.197z" transform="rotate(-145 914.887 215.665) scale(.5)" style="display:block" id="ah"/><path fill="#FFF" d="M412.599 78.212c-6.132 3.04-7.257 9.111-7.45 10.036l-2.078 9.955c-.804 3.852 1.678 7.626 5.543 8.43l7.348 1.528c7.924 1.648 15.683-3.417 17.331-11.313.495-2.371 3.308-16.424 3.308-16.424s-16.193-6.083-24.002-2.212zm-14.702-3.734c3.902 5.915 3.593 9.268 3.279 11.761-.411 3.262-1.961 10.655-1.961 10.655-.863 4.124-4.939 6.767-9.102 5.904l-7.271-1.508c-8.179-1.696-13.434-9.638-11.738-17.74.661-3.158 3.897-16.189 3.897-16.189s19.186 1.492 22.896 7.117z" transform="rotate(-4.991 7446.617 -10827.491)" style="display:block" id="af"/><path fill="#FFF" d="M412.599 78.212c-6.132 3.04-7.257 9.111-7.45 10.036l-2.078 9.955c-.804 3.852 1.678 7.626 5.543 8.43l7.348 1.528c7.924 1.648 15.683-3.417 17.331-11.313.495-2.371 3.308-16.424 3.308-16.424s-16.193-6.083-24.002-2.212zm-14.702-3.734c3.902 5.915 3.593 9.268 3.279 11.761-.411 3.262-1.961 10.655-1.961 10.655-.863 4.124-4.939 6.767-9.102 5.904l-7.271-1.508c-8.179-1.696-13.434-9.638-11.738-17.74.661-3.158 3.897-16.189 3.897-16.189s19.186 1.492 22.896 7.117z" transform="rotate(-4.991 7446.617 -10827.491)" style="display:block" id="ag"/><path fill="#FFF" d="M638.033-169.849c-41.207 112.587-110.385 302.331-170.99 469.348-11.827 32.594-21.429 51.144-71.04 55.59-84.82 7.601-163.41 13.29-252.041 16.588-15.917.592-33.228-11.412-36.908-42.619-14.53-123.235-31.678-302.891-47.058-481.524-2.828-32.845 23.041-69.646 70.892-70.091 112.027-1.042 349.193-14.511 455.264-10.36 34.205 1.339 62.292 34.624 51.881 63.068z" transform="rotate(-145 914.887 215.665) scale(.5)" style="display:block" id="ai"/><path fill="#FFF" d="M615.125 597.383S518.546 449.096 506.719 481.69c-11.827 32.594-61.105-131.047-110.716-126.601-84.82 7.601-163.41 13.29-252.041 16.588-15.917.592-33.228-11.412-36.908-42.619-14.53-123.235-31.678-302.891-47.058-481.524-2.828-32.845 23.041-69.646 70.892-70.091 112.027-1.042 349.193-14.511 455.264-10.36 34.205 1.339 62.292 34.624 51.881 63.068C596.826-57.262 923.151 9.427 923.151 9.427s83.359 177.85 82.666 179.759c-.334.919-390.692 408.197-390.692 408.197z" transform="rotate(-145 914.887 215.665) scale(.5)" style="display:block" id="al"/><path fill="#FFF" d="M412.599 78.212c-6.132 3.04-7.257 9.111-7.45 10.036l-2.078 9.955c-.804 3.852 1.678 7.626 5.543 8.43l7.348 1.528c7.924 1.648 15.683-3.417 17.331-11.313.495-2.371 3.308-16.424 3.308-16.424s-16.193-6.083-24.002-2.212zm-14.702-3.734c3.902 5.915 3.593 9.268 3.279 11.761-.411 3.262-1.961 10.655-1.961 10.655-.863 4.124-4.939 6.767-9.102 5.904l-7.271-1.508c-8.179-1.696-13.434-9.638-11.738-17.74.661-3.158 3.897-16.189 3.897-16.189s19.186 1.492 22.896 7.117z" transform="rotate(-5 7434.471 -10806.925)" style="display:block" id="aj"/><path fill="#FFF" d="M412.599 78.212c-6.132 3.04-7.257 9.111-7.45 10.036l-2.078 9.955c-.804 3.852 1.678 7.626 5.543 8.43l7.348 1.528c7.924 1.648 15.683-3.417 17.331-11.313.495-2.371 3.308-16.424 3.308-16.424s-16.193-6.083-24.002-2.212zm-14.702-3.734c3.902 5.915 3.593 9.268 3.279 11.761-.411 3.262-1.961 10.655-1.961 10.655-.863 4.124-4.939 6.767-9.102 5.904l-7.271-1.508c-8.179-1.696-13.434-9.638-11.738-17.74.661-3.158 3.897-16.189 3.897-16.189s19.186 1.492 22.896 7.117z" transform="rotate(-5 7434.471 -10806.925)" style="display:block" id="ak"/><filter id="b" filterUnits="objectBoundingBox" x="0%" y="0%" width="100%" height="100%"><feComponentTransfer in="SourceGraphic"><feFuncA type="table" tableValues="1.0 0.0"/></feComponentTransfer></filter><filter id="f" filterUnits="objectBoundingBox" x="0%" y="0%" width="100%" height="100%"><feComponentTransfer in="SourceGraphic"><feFuncA type="table" tableValues="1.0 0.0"/></feComponentTransfer></filter><filter id="i" filterUnits="objectBoundingBox" x="0%" y="0%" width="100%" height="100%"><feComponentTransfer in="SourceGraphic"><feFuncA type="table" tableValues="1.0 0.0"/></feComponentTransfer></filter><filter id="m" filterUnits="objectBoundingBox" x="0%" y="0%" width="100%" height="100%"><feComponentTransfer in="SourceGraphic"><feFuncA type="table" tableValues="1.0 0.0"/></feComponentTransfer></filter><filter id="p" filterUnits="objectBoundingBox" x="0%" y="0%" width="100%" height="100%"><feComponentTransfer in="SourceGraphic"><feFuncA type="table" tableValues="1.0 0.0"/></feComponentTransfer></filter><filter id="t" filterUnits="objectBoundingBox" x="0%" y="0%" width="100%" height="100%"><feComponentTransfer in="SourceGraphic"><feFuncA type="table" tableValues="1.0 0.0"/></feComponentTransfer></filter><g style="display:block" id="g"><path fill="#FFF" d="M638.033-169.849c-41.207 112.587 498.002-704.754 437.397-537.737-11.827 32.594-744.654 15.526-794.265 19.972-84.82 7.601-1090.514 743.028-1179.146 746.325-15.917.593 94.439 209.272 90.759 178.065-14.53-123.236 483.127-306.895 467.747-485.528-1.182-13.726 402.119 68.144 410.47 55.978 11.633-16.946 32.039-29.524 59.893-29.783 112.027-1.042 349.193-14.511 455.264-10.36 34.205 1.339 62.291 34.624 51.881 63.068z" transform="rotate(-145 914.887 215.665) scale(.5)"/><path fill-opacity="0" stroke="#9DEEC7" stroke-width="6.5" d="M1230.584 803.67C1279.75 769.375 824.5 949.5 897.22 898.474c14.192-9.958 309.445 207.2 331.04 219.606 36.92 21.212 659.74 8.42 696.987 32.488 6.69 4.322 21.337-112.796 13.894-98.96-29.391 54.642-285.89-12.858-330.821 64.717-3.453 5.96-145.156-143.233-152.065-140.645-9.625 3.604-21.59 2.904-33.072-4.979-46.183-31.7-147.183-94.2-189.437-126.32-13.625-10.359-15.583-32.046-3.162-40.71z"/></g><g style="display:block" id="d"><path fill="#DB8D74" d="M521.5 303c-16.5 11-42 12.5-66 13.5s-53.834 22.53-51 52c2.5 26 27.5 43 54.5 43.5 30.012.556 61-2.5 100.5-24s36.5-55.5 23.5-77-45-19-61.5-8z" transform="rotate(-6 6207.043 -8631.536)"/><path fill-opacity="0" stroke="#3D3D3D" stroke-width="2" d="M1486.56 848.357c-15.26 12.664-40.464 16.822-64.228 20.325-23.764 3.503-51.184 28.034-45.285 57.046 5.204 25.596 31.844 39.89 58.748 37.565 29.906-2.584 60.405-8.863 97.441-34.374 37.036-25.51 30.499-59.011 15.323-79.034-15.177-20.024-46.74-14.193-62-1.528z"/></g><g style="display:block" id="n"><path fill="#FFF" d="M638.033-169.849c-41.207 112.587 498.002-704.754 437.397-537.737-11.827 32.594-744.654 15.526-794.265 19.972-84.82 7.601-1090.514 743.028-1179.146 746.325-15.917.593 94.439 209.272 90.759 178.065-14.53-123.236 483.127-306.895 467.747-485.528-1.182-13.726 402.119 68.144 410.47 55.978 11.633-16.946 32.039-29.524 59.893-29.783 112.027-1.042 349.193-14.511 455.264-10.36 34.205 1.339 62.291 34.624 51.881 63.068z" transform="rotate(-145 914.887 215.665) scale(.5)"/><path fill-opacity="0" stroke="#9DEEC7" stroke-width="6.5" d="M1230.584 803.67C1279.75 769.375 824.5 949.5 897.22 898.474c14.192-9.958 309.445 207.2 331.04 219.606 36.92 21.212 659.74 8.42 696.987 32.488 6.69 4.322 21.337-112.796 13.894-98.96-29.391 54.642-285.89-12.858-330.821 64.717-3.453 5.96-145.156-143.233-152.065-140.645-9.625 3.604-21.59 2.904-33.072-4.979-46.183-31.7-147.183-94.2-189.437-126.32-13.625-10.359-15.583-32.046-3.162-40.71z"/></g><g style="display:block" id="k"><path fill="#DB8D74" d="M521.5 303c-16.5 11-42 12.5-66 13.5s-53.834 22.53-51 52c2.5 26 27.5 43 54.5 43.5 30.012.556 61-2.5 100.5-24s36.5-55.5 23.5-77-45-19-61.5-8z" transform="rotate(-10 4091.52 -4911.194)"/><path fill-opacity="0" stroke="#3D3D3D" stroke-width="2" d="M1481.172 843.712c-14.34 13.698-39.191 19.603-62.653 24.756-23.462 5.152-49.104 31.536-41.195 60.066 6.976 25.17 34.549 37.571 61.225 33.375 29.653-4.664 59.64-13.054 94.806-41.087 35.166-28.032 26.308-60.995 9.772-79.91-16.536-18.917-47.616-10.898-61.955 2.8z"/></g><g style="display:block" id="u"><path fill="#FFF" d="M638.033-169.849c-41.207 112.587 498.002-704.754 437.397-537.737-11.827 32.594-744.654 15.526-794.265 19.972-84.82 7.601-1090.514 743.028-1179.146 746.325-15.917.593 94.439 209.272 90.759 178.065-14.53-123.236 483.127-306.895 467.747-485.528-1.182-13.726 402.119 68.144 410.47 55.978 11.633-16.946 32.039-29.524 59.893-29.783 112.027-1.042 349.193-14.511 455.264-10.36 34.205 1.339 62.291 34.624 51.881 63.068z" transform="rotate(-145 914.887 215.665) scale(.5)"/><path fill-opacity="0" stroke="#9DEEC7" stroke-width="6.5" d="M1230.584 803.67C1279.75 769.375 824.5 949.5 897.22 898.474c14.192-9.958 309.445 207.2 331.04 219.606 36.92 21.212 659.74 8.42 696.987 32.488 6.69 4.322 21.337-112.796 13.894-98.96-29.391 54.642-285.89-12.858-330.821 64.717-3.453 5.96-145.156-143.233-152.065-140.645-9.625 3.604-21.59 2.904-33.072-4.979-46.183-31.7-147.183-94.2-189.437-126.32-13.625-10.359-15.583-32.046-3.162-40.71z"/></g><g style="display:block" id="r"><path fill="#DB8D74" d="M521.5 303c-16.5 11-42 12.5-66 13.5s-53.834 22.53-51 52c2.5 26 27.5 43 54.5 43.5 30.012.556 61-2.5 100.5-24s36.5-55.5 23.5-77-45-19-61.5-8z" transform="translate(975 551.5)"/><path fill-opacity="0" stroke="#3D3D3D" stroke-width="2" d="M1496.5 854.5c-16.5 11-42 12.5-66 13.5s-53.834 22.53-51 52c2.5 26 27.5 43 54.5 43.5 30.012.556 61-2.5 100.5-24s36.5-55.5 23.5-77-45-19-61.5-8z"/></g><linearGradient id="bj" spreadMethod="pad" gradientUnits="userSpaceOnUse" x1="475" y1="-110.003" x2="566.067" y2="-38.825"><stop offset="0%" stop-color="#FFA75F"/><stop offset="50%" stop-color="#FFB78B"/><stop offset="100%" stop-color="#FFC7B8"/></linearGradient><linearGradient id="bf" spreadMethod="pad" gradientUnits="userSpaceOnUse" x1="475" y1="-110.003" x2="566.067" y2="-38.825"><stop offset="0%" stop-color="#FFA75F"/><stop offset="50%" stop-color="#FFB78B"/><stop offset="100%" stop-color="#FFC7B8"/></linearGradient><linearGradient id="bb" spreadMethod="pad" gradientUnits="userSpaceOnUse" x1="475" y1="-110.003" x2="566.067" y2="-38.825"><stop offset="0%" stop-color="#FFA75F"/><stop offset="50%" stop-color="#FFB78B"/><stop offset="100%" stop-color="#FFC7B8"/></linearGradient></defs><g clip-path="url(#am)"><g clip-path="url(#au)" style="display:block" transform="matrix(-1 0 0 1 1916 -23.5)"><g style="display:block"><path fill="#58CC02" d="M1230.485 803.743c49.265-34.368 132.015-92.243 204.643-143.202 2.002-1.405 3.906-2.71 5.76-3.878 4.8-3.029 9.266-5.15 14.243-5.77 6.718-.835 14.365 1.067 25.027 7.176 36.967 21.181 70.905 41.494 108.168 65.572 4.658 3.01 6.174 7.172 6.757 10.689.983 5.927-.897 11.436-3.946 17.277-3.012 5.768-6.232 11.558-9.996 18.377C1550.5 825.5 1502 911.25 1472.57 961.824c-4.698 8.072-10.57 15.176-16.747 21.73-4.887 5.184-14.269 14.656-20.551 18.658-11.597 7.387-24.773 4.218-34.089-2.01C1359.001 972 1261.5 906.5 1219.247 875.38c-8.648-6.368-11.976-19.711-10.496-25.73 2.25-9.15 4.91-17.376 8.08-24.263 3.17-6.887 7.327-17.231 13.654-21.644z"/><path stroke="#58CC02" stroke-width="6.5" d="M1230.485 803.743c49.265-34.368 132.015-92.243 204.643-143.202 2.002-1.405 3.906-2.71 5.76-3.878 4.8-3.029 9.266-5.15 14.243-5.77 6.718-.835 14.365 1.067 25.027 7.176 36.967 21.181 70.905 41.494 108.168 65.572 4.658 3.01 6.174 7.172 6.757 10.689.983 5.927-.897 11.436-3.946 17.277-3.012 5.768-6.232 11.558-9.996 18.377C1550.5 825.5 1502 911.25 1472.57 961.824c-4.698 8.072-10.57 15.176-16.747 21.73-4.887 5.184-14.269 14.656-20.551 18.658-11.597 7.387-24.773 4.218-34.089-2.01C1359.001 972 1261.5 906.5 1219.247 875.38c-8.648-6.368-11.976-19.711-10.496-25.73 2.25-9.15 4.91-17.376 8.08-24.263 3.17-6.887 7.327-17.231 13.654-21.644z" fill="none"/><path fill="#FFF" d="M1230.584 803.67c49.166-34.295 131.916-92.17 204.637-143.195 14.192-9.958 23.444-14.802 45.039-2.395 36.92 21.212 70.74 41.42 107.987 65.488 6.69 4.322 10.337 14.203 2.894 28.04-29.391 54.642-73.89 133.142-118.821 210.717-8.262 14.263-29.411 21.917-49.137 8.376-46.183-31.7-147.183-94.2-189.437-126.32-13.625-10.359-15.583-32.046-3.162-40.71z"/><path stroke="#9DEEC7" stroke-width="6.5" d="M1230.584 803.67c49.166-34.295 131.916-92.17 204.637-143.195 14.192-9.958 23.444-14.802 45.039-2.395 36.92 21.212 70.74 41.42 107.987 65.488 6.69 4.322 10.337 14.203 2.894 28.04-29.391 54.642-73.89 133.142-118.821 210.717-8.262 14.263-29.411 21.917-49.137 8.376-46.183-31.7-147.183-94.2-189.437-126.32-13.625-10.359-15.583-32.046-3.162-40.71z" fill="none"/></g><g mask="url(#av)" style="display:block"><g clip-path="url(#aw)"><path fill="#A175F9" d="M313.521 147.265a4.996 4.996 0 0 1-2.476-6.588l35.505-79.229c12.52-26.807 39.038-43.041 67.437-37.268 27.928 5.677 46.166 30.165 46.598 59.638l2.639 84.297a5.001 5.001 0 0 1-4.581 5.138c-10.243.872-36.176 2.222-68.293-2.36-33.359-4.76-65.337-18.356-76.829-23.628z" transform="rotate(-8.987 4523.134 -5782.277)" style="display:block"/><g style="display:block"><path fill="#A570FF" d="M1336.288 765.013c2.96-6.884 13.316-10.038 20.2-7.078 6.884 2.961 13.092 13.873 10.131 20.757 0 0-6.506 18.726-12.423 30.015-5.204 9.929-12.829 21.277-12.829 21.277-6.056 7.408-10.943 10.064-17.827 7.103-6.884-2.96-10.065-10.941-7.103-17.827 0 0 5.962-13.471 9.91-24.258 3.947-10.787 9.94-29.989 9.94-29.989z"/><path fill="#593F86" d="M1336.288 765.013s7.882-30.513 10.062-56.935l36.458 5.68c-.346 25.72-15.525 63.355-15.525 63.355-3.011 1.552-13.401 4.31-20.367 1.314-6.395-2.75-9.74-10.374-10.628-13.414z"/><path fill="#FFC6B7" d="M1387.698 757.329c-.076 5.545-4.634 9.979-10.18 9.903-5.545-.076-9.98-4.634-9.904-10.18.076-5.545 4.634-9.98 10.18-9.903 5.545.075 9.98 4.634 9.904 10.18z"/><path fill="#593F86" d="m1360.357 703.678-47.562 29.522c-11.222 6.965-6.51 24.26 6.695 24.569l79.751 1.865c13.244.31 18.733-16.83 7.774-24.272l-46.658-31.684z"/><path fill="#FFC6B7" d="M1358.884 735.06c-7.06-4.56-10.34-7.958-15.102-8.024-4.674-.065-8.636 3.08-9.814 7.388 5.114.14 17.566.45 24.916.637z"/></g><path fill="#FFC6B7" d="m452.464 91.525 4.29.88c6.08 1.245 9.998 7.024 8.752 12.907-1.246 5.883-7.186 9.642-13.266 8.396l-4.291-.879c-6.08-1.246-9.998-7.025-8.751-12.908 1.247-5.883 7.186-9.642 13.266-8.396zm-35.745-59.211c24.256 5.058 40.846 27.56 38.541 52.277l-5.116 39.92c-2.524 13.181-12.859 21.445-25.152 20.885-12.066-.55-19.554-1.305-35.019-2.624-15.465-1.319-26.56-9.131-26.56-9.131-12.999-2.711-21.339-15.466-18.628-28.489a24.11 24.11 0 0 1 .936-3.302l13.566-37.444c8.519-23.515 32.991-37.189 57.432-32.092z" transform="rotate(-4.987 7425.603 -10720.205)" style="display:block"/><path fill="#FFF" d="M412.599 78.212c-6.132 3.04-7.257 9.111-7.45 10.036l-2.078 9.955c-.804 3.852 1.678 7.626 5.543 8.43l7.348 1.528c7.924 1.648 15.683-3.417 17.331-11.313.495-2.371 3.308-16.424 3.308-16.424s-16.193-6.083-24.002-2.212zm-14.702-3.734c3.902 5.915 3.593 9.268 3.279 11.761-.411 3.262-1.961 10.655-1.961 10.655-.863 4.124-4.939 6.767-9.102 5.904l-7.271-1.508c-8.179-1.696-13.434-9.638-11.738-17.74.661-3.158 3.897-16.189 3.897-16.189s19.186 1.492 22.896 7.117z" transform="rotate(-4.991 7446.617 -10827.491)" style="display:block"/><g mask="url(#ax)" style="display:block"><path fill="#3D3D3D" d="M1402.538 661.014c-.504 3.83-3.658 6.304-7.22 5.868-3.563-.435-6.06-3.779-5.682-7.445.379-3.666 1.043-9.899 1.043-9.899l13.08.94s-.717 6.707-1.22 10.536zm-29.2-2.108c-.368 4.328-3.659 6.304-7.221 5.868-3.563-.435-6.021-4.01-5.682-7.445.349-3.52.681-8.392.681-8.392l12.643 1.046s-.054 4.594-.422 8.923z"/></g><g mask="url(#ay)" style="display:block"><path fill="#A570FF" d="m1415.763 645.765-1.123 16.504-71.25-6.764 2.162-17.808 70.21 8.068z"/></g><path fill="#FFC6B7" d="M392.238 134.582a27.84 27.84 0 0 1 .557-7.168c3.172-15.155 18.137-24.871 33.426-21.7 4.08.846 7.06 2.538 9.233 4.487 5.034 4.515-43.121 26.188-43.216 24.381z" transform="rotate(-4.991 7446.617 -10827.491)" style="display:block"/><path fill="#EE9583" d="M404.942 119.172c5.947-7.414 11.462-9.776 16.117-6.04.85.682.993 1.938.319 2.804a1.942 1.942 0 0 1-2.757.333c-2.469-1.981-5.872-.523-10.64 5.42a1.942 1.942 0 0 1-2.762.291 2.018 2.018 0 0 1-.277-2.808zm-7.456-4.456c3.258.67 6.439-1.349 7.106-4.511.667-3.162-3.654-11.853-3.654-11.853l-.905.784c-2.011 1.78-6.716 6.163-7.239 8.641-.667 3.162 1.434 6.268 4.692 6.939z" transform="rotate(-4.987 7451.512 -10835.85)" style="display:block"/><path fill="#A570FF" d="M317.487 151.331c14.939-40.032 33.041-127.467 89.887-122.518.776.068 1.388.496 1.848 1.244 6.887 11.194-19.7 94.128-24.23 115.522-.547 2.583-2.975 3.862-5.614 3.912-18.096.341-47.655 2.152-61.891 1.84zM428.486 34.052c17.261 6.726 29.208 23.333 28.949 47.181 0 0-26.51-5.534-26.56-5.547-19.33-4.024-23.632-20.578-23.493-40.64l-4.758-6.011c8.329-.365 18.488 2.143 25.862 5.017z" transform="rotate(-4.987 7425.603 -10720.205)" style="display:block"/></g></g><g mask="url(#az)" style="display:block"><g clip-path="url(#aA)"><path fill="#E6A000" d="M0-59.292c32.723 0 59.292 26.569 59.292 59.292S32.723 59.292 0 59.292-59.292 32.723-59.292 0-32.723-59.292 0-59.292z" transform="matrix(.38973 .12663 -.0618 .19021 1493.225 685.26)" style="display:block"/><g style="display:block"><path fill="#FFC700" d="M1479.054 669.314c9.753-2.106 24.531 2.008 33.007 9.188 8.475 7.18 7.44 14.708-2.315 16.814-9.753 2.106-24.531-2.007-33.007-9.188-8.475-7.18-7.439-14.708 2.315-16.814z"/><path fill="#FFE700" d="M1506.04 676.633a28.068 28.068 0 0 1 3.133 2.286c1.821 1.542 3.122 3.104 3.912 4.604.165.313-.197.356-.652.456-4.6 1.008-22.786 4.933-25.267 5.457-.34.072-.928.213-1.803-.188-2.292-1.052-4.25-2.435-5.976-3.898a19.501 19.501 0 0 1-2.538-2.554c-.142-.175-.415-.45.61-.672 4.43-.957 20.728-4.438 26.91-5.773.817-.177 1.297.045 1.672.282zm-24.7-5.462c5.383-1.163 12.583-.078 18.92 2.509.45.184 1.581.769.25 1.082-1.333.313-21.493 4.574-23.888 5.091-1.403.303-1.725-.438-1.795-.671-1.11-3.721 1.123-6.847 6.512-8.011z"/></g><path fill="#E6A000" d="M0-59.292c32.723 0 59.292 26.569 59.292 59.292S32.723 59.292 0 59.292-59.292 32.723-59.292 0-32.723-59.292 0-59.292z" transform="matrix(.4813 .24524 -.13166 .2584 1514.025 734.632)" style="display:block"/><g style="display:block"><path fill="#FFC700" d="M1499.117 709.767c13.434-1.32 31.865 7.007 41.167 18.597 9.302 11.59 5.953 22.057-7.48 23.377-13.434 1.32-31.865-7.007-41.167-18.597-9.302-11.59-5.953-22.057 7.48-23.377z"/><path fill="#FFE700" d="M1532.827 724.7a34.675 34.675 0 0 1 3.535 3.763c1.998 2.49 3.304 4.919 3.953 7.173.136.47-.354.47-.98.534-6.34.643-31.386 3.102-34.8 3.422-.468.043-1.283.143-2.332-.573-2.75-1.876-4.97-4.164-6.865-6.525-1.101-1.373-1.992-2.727-2.679-4.043-.142-.271-.43-.707.982-.846 6.102-.6 28.537-2.752 37.053-3.588 1.125-.111 1.7.283 2.133.682zm-31.18-11.92c7.415-.728 16.636 2.03 24.322 6.762.546.337 1.887 1.356.046 1.572-1.841.217-29.584 2.815-32.882 3.14-1.932.19-2.162-.914-2.193-1.255-.487-5.449 3.284-9.489 10.706-10.218z"/></g><path fill="#E6A000" d="M0-59.292c32.723 0 59.292 26.569 59.292 59.292S32.723 59.292 0 59.292-59.292 32.723-59.292 0-32.723-59.292 0-59.292z" transform="matrix(.6486 .38971 -.22476 .37406 1500.135 794.898)" style="display:block"/><g style="display:block"><path fill="#FFC700" d="M1482.475 757.503c19.29-1.18 44.282 12.171 55.821 29.82 11.54 17.65 5.256 32.914-14.034 34.095-19.29 1.18-44.282-12.171-55.821-29.82-11.54-17.65-5.256-32.914 14.034-34.095z"/><path fill="#FFE700" d="M1528.227 781.484a46.427 46.427 0 0 1 4.478 5.761c2.48 3.791 3.983 7.453 4.578 10.82.125.703-.572.674-1.472.732-9.107.587-45.072 2.785-49.973 3.061-.67.038-1.843.139-3.23-.98-3.636-2.926-6.46-6.434-8.81-10.029-1.367-2.09-2.437-4.14-3.222-6.123-.162-.409-.509-1.069 1.52-1.193 8.761-.536 40.97-2.43 53.198-3.18 1.616-.098 2.376.517 2.933 1.131zm-42.595-19.386c10.65-.651 23.358 3.948 33.597 11.378.727.528 2.484 2.11-.165 2.324-2.648.214-42.467 2.464-47.203 2.754-2.775.17-2.942-1.473-2.935-1.979.099-8.074 6.049-13.825 16.706-14.477z"/></g><path fill="#E6A000" d="M0-59.292c32.723 0 59.292 26.569 59.292 59.292S32.723 59.292 0 59.292-59.292 32.723-59.292 0-32.723-59.292 0-59.292z" transform="matrix(.68536 .4799 -.32116 .45866 1420.606 831.336)" style="display:block"/><g style="display:block"><path fill="#FFC700" d="M1406.454 784.874c22.482-1.404 49.164 15.042 59.597 36.735 10.432 21.692.663 40.415-21.819 41.82-22.482 1.404-49.164-15.043-59.597-36.735-10.432-21.692-.663-40.416 21.819-41.82z"/><path fill="#FFE700" d="M1455.376 814.418a47.284 47.284 0 0 1 4.228 7.082c2.24 4.66 3.377 9.157 3.511 13.292.028.863-.772.826-1.822.895-10.618.7-52.534 3.315-58.242 3.643-.78.044-2.152.165-3.572-1.21-3.72-3.602-6.406-7.914-8.531-12.332-1.236-2.57-2.135-5.088-2.716-7.525-.12-.502-.412-1.313 1.952-1.46 10.21-.638 47.738-2.89 61.989-3.78 1.883-.118 2.66.639 3.203 1.395zm-46.03-23.896c12.412-.776 26.34 4.9 36.949 14.044.754.65 2.524 2.596-.572 2.852-3.095.257-49.473 2.927-54.992 3.272-3.235.202-3.157-1.815-3.067-2.436 1.442-9.91 9.261-16.956 21.683-17.732z"/></g><path fill="#E6A000" d="M0-59.292c32.723 0 59.292 26.569 59.292 59.292S32.723 59.292 0 59.292-59.292 32.723-59.292 0-32.723-59.292 0-59.292z" transform="matrix(.81915 .57358 -.43018 .61436 1303.57 843.462)" style="display:block"/><g style="display:block"><path fill="#FFC700" d="M1289.189 784.783c28.033-3.338 60.076 16.103 71.57 43.422 11.493 27.32-1.915 52.173-29.948 55.511-28.033 3.339-60.076-16.102-71.57-43.422-11.493-27.32 1.915-52.173 29.948-55.511z"/><path fill="#FFE700" d="M1347.981 819.638a53.725 53.725 0 0 1 4.773 8.863c2.47 5.869 3.577 11.603 3.463 16.936-.023 1.113-1.016 1.12-2.325 1.28-13.243 1.624-65.508 7.844-72.623 8.654-.973.11-2.685.36-4.357-1.32-4.378-4.402-7.424-9.79-9.765-15.355-1.362-3.236-2.308-6.43-2.865-9.538-.115-.64-.423-1.669 2.524-2.02 12.733-1.516 59.52-6.969 77.29-9.085 2.347-.28 3.261.645 3.885 1.585zm-55.58-27.754c15.475-1.843 32.399 4.545 44.963 15.641.892.788 2.96 3.183-.904 3.724-3.864.542-61.677 7.135-68.56 7.954-4.032.48-3.8-2.13-3.645-2.939 2.463-12.903 12.658-22.536 28.146-24.38z"/></g></g></g><path stroke="#9DEEC7" stroke-width="13" d="M396.003 355.089c-84.82 7.601-163.41 13.29-252.041 16.588-15.917.592-33.228-11.412-36.908-42.619-14.53-123.235-31.678-302.891-47.058-481.524-2.828-32.845 23.041-69.646 70.892-70.091 112.027-1.042 349.193-14.511 455.264-10.36" fill="none" transform="rotate(-145 914.887 215.665) scale(.5)" style="display:block"/></g><g clip-path="url(#aQ)" style="display:block" transform="matrix(-1 0 0 1 1976 -43.5)"><g style="display:block"><path stroke-linecap="round" stroke-miterlimit="10" stroke="#CC348D" stroke-width="23" d="M1749.913 387.57c-1.232-15.112 29.935-15.444 47.665 1.92" fill="none"/><path fill="#C6775C" d="M1765.026 386.338c.68 8.346-5.535 15.663-13.88 16.344-8.347.68-15.664-5.534-16.345-13.88-.68-8.346 5.534-15.665 13.88-16.345 8.346-.68 15.665 5.534 16.345 13.88z"/><path fill="#5EC6FF" d="M1784.771 417.62c-3.061 9.409-18.246 12.901-33.915 7.801-15.67-5.1-25.889-16.86-22.827-26.269 3.062-9.407 18.633-25.671 37.711-19.462 19.217 6.254 22.093 28.523 19.031 37.93z"/><path fill="#0084C2" d="M1784.771 417.62c-3.061 9.409-18.246 12.901-33.915 7.801-15.67-5.1-25.889-16.86-22.827-26.269 3.062-9.407 18.246-12.9 33.915-7.8 15.67 5.1 25.889 16.86 22.827 26.269z"/><path fill="#FFCC76" d="M1761.944 391.352c-8.888-2.894-17.618-3.019-24.07-.87-.534 5.857-1.72 13.72-1.8 15.694-.008.123-.094.233-.107.358-.632 6.74 2.363 12.752 8.716 14.291 4.602 1.116 9.217-.633 12.003-4.093a13.206 13.206 0 0 0 6.571 3.843c7.129 1.728 14.308-2.649 16.035-9.777.84-3.463.949-4.53 2.247-6.49-4.019-5.334-10.98-10.152-19.595-12.956z"/></g><g mask="url(#aR)" style="display:block"><path stroke-linecap="round" stroke-miterlimit="10" stroke="#FFCC76" stroke-width="4.148" d="M1806.215 313.222c-15.239 5.31-36.82 27.062-27.967 32.3 8.854 5.238 20.344-24.297 44.066-16.386m-19.416 7.665c-11.845 5.514-20.736 19.119-33.35 38.8m34.973-32.849c-5.388 4.806-8.193 7.236-14.859 16.44-6.665 9.206-14.907 18.023-19.08 30.102" fill="none"/></g><path fill="#0084C2" d="M732.862-124.382c4.759-25.473 29.266-42.264 54.739-37.505s42.265 29.265 37.506 54.738-29.266 42.265-54.739 37.506-42.265-29.266-37.506-54.739z" transform="rotate(2.33 -13155.481 25520.213)" style="display:block"/><g mask="url(#aS)" style="display:block"><path fill="#006AAD" d="M1854.451 507.362c-17.22-.804-34.337-2.692-50.207-18.575l-6.947.72c19.075 20.36 39.837 22.563 51.344 22.529a47.202 47.202 0 0 0 5.81-4.674z"/><path fill="#C6775C" d="M1789.832 418.093c3.819-16.177 19.98-26.236 36.18-22.523 16.275 3.732 26.445 19.95 22.714 36.226l-8.143 35.515c-.927 4.04-3.667 7.434-7.441 9.15-15.545 7.067-27.75 12-32.359 13.824a3.209 3.209 0 0 1-3.507-.746c-8.508-8.846-13.773-19.16-16.156-24.52-1.05-2.361-1.187-4.997-.593-7.513l9.305-39.413z"/><path stroke-linecap="round" stroke="#FFF" stroke-width="20.813" d="m1790.509 459.936 2.273-8.515m20.791 14.334 1.422-6.209" fill="none"/><path stroke-linecap="round" stroke="#3D3D3D" stroke-width="9.4" d="M1811.818 463.188s-1.012 2.536-1.115 5.066m-19.118-11.507s-.387 3.3-1.685 5.612" fill="none"/><path fill="#FFF" d="M1786.253 460.367c1.748.808 2.692 3.389 1.757 5.101-3.859 7.416-9.43-7.447-1.757-5.1zm19.733 6.92c2.064.508 3.474 2.44 2.738 4.648-2.477 4.775-6.483-3.908-2.738-4.649z"/><path fill="#C6775C" d="M1793.397 448.865a6.295 6.295 0 1 1 12.224 2.999 6.295 6.295 0 0 1-12.224-2.999z"/></g><path stroke-linecap="round" stroke="#3D3D3D" stroke-width="46.998" d="M806.508-160.321c-17.756 5.031-37.78.251-40.643-7.859" fill="none" transform="translate(1031.766 587.916)" style="display:block"/><path fill="#FFF" d="m756.151-159.828.792-1.802a5.805 5.805 0 0 1 10.63 4.672l-.792 1.802a5.805 5.805 0 0 1-10.63-4.672z" transform="translate(1031.89 588.041)" style="display:block"/><path fill="#CC348D" d="M745.232-224.137c-.304-28.44 22.505-51.741 50.945-52.045 28.44-.304 51.741 22.506 52.045 50.946.304 28.44-22.505 51.74-50.945 52.044-28.44.304-51.741-22.505-52.045-50.945z" transform="rotate(-2.33 15794.058 -25247.48)" style="display:block"/><path stroke-linecap="round" stroke-linejoin="round" stroke="#CC348D" stroke-width="23" d="M828.944-200.217s8.43 4.967 7.084 9.998c-3.245 12.125-28.893 15.5-28.893 15.5" fill="none" transform="rotate(-2.33 15794.058 -25247.48)" style="display:block"/><g mask="url(#aT)" style="display:block"><path fill="#0084C2" d="M1761.16 354.431c2.566-24.815 18.576-50.317 60.35-52.335 41.775-2.019 80.538 16.907 73.14 42.131-5.762 19.643-26.493 33.582-73.032 31.584-44.395-1.907-60.728-18.761-60.457-21.38z"/><path stroke="#00448E" stroke-width="11" d="M1761.16 354.431c2.566-24.815 18.576-50.317 60.35-52.335 41.775-2.019 80.538 16.907 73.14 42.131-5.762 19.643-26.493 33.582-73.032 31.584-44.395-1.907-60.728-18.761-60.457-21.38z" fill="none"/></g><g style="display:block"><path stroke-linecap="round" stroke-linejoin="round" stroke="#0084C2" stroke-width="20" d="M1820.806 325.885s-34.252-12.62-44.541-21.392c2.593-11.912 19.918-28.321 28.757-38.83" fill="none"/><path stroke-linecap="round" stroke-linejoin="round" stroke="#CC348D" stroke-width="14" d="M1825.988 257.662c-2.072-5.635-6.507-12.087-10.347-15.054" fill="none"/></g><g style="display:block"><path stroke-linecap="round" stroke-linejoin="round" stroke="#0084C2" stroke-width="20" d="M1821.047 325.816s-55.696 4.45-96.175-23.18" fill="none"/><path stroke-linecap="round" stroke-linejoin="round" stroke="#CC348D" stroke-width="14" d="M1709.823 284.406c-2.555 2.196-8.844 8.582-12.465 13.795" fill="none"/></g><g style="display:block"><path stroke-linecap="round" stroke-linejoin="round" stroke="#DAAF83" stroke-width="5" d="m1870.672 426.19-59.86-.398m56.466 10.052-56.45-6.681" fill="none"/><path stroke-linecap="round" stroke-linejoin="round" stroke="#C6775C" stroke-width="9" d="m1838.25 426.611-9.295 7.271" fill="none"/><path fill="#C6775C" d="m1840.169 430.892 4.64-3.727a8.535 8.535 0 0 0 1.311-12l-3.298-4.104a8.534 8.534 0 0 0-11.998-1.31l-4.64 3.727a8.534 8.534 0 0 0-1.31 11.999l3.296 4.104a8.536 8.536 0 0 0 11.999 1.311z"/></g></g><g clip-path="url(#bg)" style="display:block" transform="matrix(-1 0 0 1 1916 -23.5)"><g style="display:block"><path stroke-linecap="round" stroke-linejoin="round" stroke="#FFC6B7" stroke-width="12" d="M1465.811 599.135c-3.261-1.451-14.011-2.352-20.57-1.18m-4.663 7.917c7.095.332 17.442-.472 22.857.78m-20.062 13.618c9.99-5.487 17.025-7.239 22.439-6.596m-2.1 17.797s2.397-9.31 7.707-17.171" fill="none"/><path stroke-linecap="round" stroke-linejoin="round" stroke="#FFC6B7" stroke-width="36" d="M1492.444 597.206c-9.887 3.093-14.476 4.728-22.661 8.545" fill="none"/><path stroke-linecap="round" stroke-linejoin="round" stroke="#33E3FF" stroke-width="36" d="M1509.96 592.386c-8.855 1.486-19.648 5.291-28.083 8.517" fill="none"/></g><path fill="#33E3FF" d="M632.466-113.303c11.392-27.32-26.455-58.927-58.859-46.551-31.992 12.079-44.436 21.928-44.436 21.928-12.955 8.433 81.63 98.115 87.673 72.755 0 0 4.324-21.31 15.622-48.132z" transform="rotate(-1.094 31008.978 -51023.403)" style="display:block"/><path stroke-linecap="round" stroke="#393939" stroke-width="27" d="m683.25 34.5 4.25 3.5" fill="none" transform="rotate(-25.692 2325.303 -1838.643)" style="display:block"/><path stroke-linecap="round" stroke-linejoin="round" stroke="#393939" stroke-width="23" d="m613.75 94-8.25 3.75" fill="none" transform="rotate(-23.932 2373.916 -1957.44)" style="display:block"/><path fill="#FFC7B8" d="M552.811-154.957c-14.873-8.982-34.962-11.237-52.179-1.891l-28.256 15.339a51.11 51.11 0 0 0-25.616 34.316l-7.98 37.63C434.57-49.714 440-30 458.986-17.428 477.972-4.856 510.5 12 528.501 43.852c6.897 12.204 42.974 11.603 54.934 7.15l38.691-9.376A38.335 38.335 0 0 0 651.93 8.839l6.319-51.72c-.568-6.318-6.973-19.296-11.519-26.102C621-107.5 590-132.5 552.811-154.957z" transform="rotate(-6.013 6499.197 -9117.922)" style="display:block"/><path fill="#EE9583" d="M523.147-6.062c2.236 3.145 5.699 3.51 8.324 1.644 2.625-1.866 3.418-5.255 1.182-8.401-2.236-3.145-9.483-4.798-10.202-4.287-.718.51-1.54 7.899.696 11.044z" transform="rotate(-6.013 6494.737 -9116.341)" style="display:block"/><g style="display:block"><path fill="#FFF" d="M1489.533 548.493c-7.881-4.67-20.051-3.19-25.844 3.146-4.785 5.233-3.498 12.014 3.012 15.872l9.756 5.783c7.882 4.67 20.052 3.189 25.845-3.147 4.785-5.233 3.499-12.014-3.011-15.872l-9.758-5.782zm30.59-23.317c-7.85-4.653-19.064-2.609-24.82 4.524-5.554 6.883-3.943 15.956 3.635 20.447l8.926 5.29c7.85 4.652 19.066 2.607 24.82-4.524 5.556-6.885 3.942-15.957-3.636-20.447l-8.925-5.29z"/><path fill="#FFC7B8" d="M1535.265 534.544c-5.311 4.46-11.335 17.395-12.838 26.71l16.598-13.943c.96-6.114 1.55-17.228-3.76-12.767z"/><path fill="#EE9583" d="M1531.405 553.36a2.223 2.223 0 0 0-1.793 2.58c.402 2.229.402 4.415-.229 6.493-.624 2.056-1.91 4.148-4.3 6.146a2.219 2.219 0 0 0-.279 3.126 2.22 2.22 0 0 0 3.128.281c2.999-2.507 4.804-5.313 5.7-8.262.889-2.926.84-5.855.352-8.57a2.221 2.221 0 0 0-2.58-1.793z"/><path fill="#4B4B4B" d="M1505.974 537.903a4.246 4.246 0 0 0 2.07 3.198c2.005 1.189 4.571.565 5.73-1.391.118-.2.216-.403.297-.613l4.932 2.782c3.533 1.993 4.328 6.16 1.779 9.32-2.561 3.172-7.528 4.125-11.078 2.122l-5.997-3.382c-3.534-1.993-4.33-6.16-1.781-9.32 1.038-1.287 2.473-2.208 4.048-2.716zm-15.513 15.717c.17.085.335.177.498.274l5.167 3.06c3.814 2.26 4.608 6.22 1.868 9.313-2.384 2.69-7.516 3.344-10.836 1.378l-7.423-4.4c-3.166-1.875-3.826-5.16-1.551-7.727 1.013-1.143 2.444-1.975 4.045-2.462a4.503 4.503 0 0 0 2.071 2.68c2.064 1.222 4.653.669 5.782-1.236a3.75 3.75 0 0 0 .379-.88z"/></g><g mask="url(#bh)" style="display:block"><g clip-path="url(#bi)" transform="rotate(.035 2734.32 5797.386) scale(1.00759)"><g style="display:block"><path fill="#FFC7B8" d="M1531.072 472.95c5.547 1.538 10.722-2.436 11.558-8.872.835-6.437-2.985-12.9-8.532-14.438-5.547-1.538-10.722 2.436-11.557 8.872-.836 6.437 2.985 12.9 8.531 14.438z"/><path fill="#0084C2" d="M1476.51 610.578s56.633 59.035 75.738 52.288l84.852-53.299c15.31-5.119 16.846-112.947 8.034-122.726l-46.156-33.193-.192-.139-6.05-4.349-7.1 111.687-109.126 49.731z"/><path fill="#33E3FF" d="M1599.227 458.011c-6.193-5.901-32.26-23.432-32.26-23.432a89.37 89.37 0 0 1 2.122 5.235c15.96 43.123 4.178 106.142 2.463 109.162-15.069 26.531-97.039 53.239-102.455 51.97l17.197 15.416c27.382 2.193 90.182-24.41 102.765-40.754 10.975-14.252 13.347-94.227 10.168-117.597z"/></g><path fill="url(#bj)" d="M542.287-73.808a20.443 20.443 0 0 0-21.744-1.686l-66.346 34.981c-4.69 2.473-5.503 8.833-1.52 12.333 4.619 4.057 18.803 15.086 20.93 16.441 2.539 1.618 3.641 4.492 3.329 7.164L455.999 7.558C439.513-4.27 412.084-46.23 416.293-66.078c0 0 3.246-69.461 16.083-76.429 0 0 91.517-46.369 107.436-34.95l29.674 16.915 1.147.654-.456 92.437a8.424 8.424 0 0 1-7.201 8.168c-.631.092-20.689-14.525-20.689-14.525z" transform="rotate(-6.1 6395.181 -8836.617)" style="display:block"/></g></g><path fill="#FF9500" d="M471.07-93.101c12.833-.062 20.227-10.945 20.168-24.325-.059-13.38-7.55-24.189-20.383-24.127-12.833.062-21.412 10.95-21.353 24.33.06 13.38 8.735 24.184 21.568 24.122zm-1.668 36.82c14.417-1.63 24.677-15.656 22.916-31.328-1.76-15.673-14.873-27.058-29.29-25.428-14.416 1.63-24.676 15.654-22.915 31.325 1.76 15.674 14.873 27.059 29.29 25.43z" transform="rotate(14.243 -1406.635 4121.317)" style="display:block"/><path fill="#33E3FF" d="M637.81-65.136C633.75-56 626.831-54.6 622.786-55.983c-5.465-1.15-9.63-7.729-9.02-16.257 1.234-17.26 7.984-33.01 13.266-43.535 4.773-9.512 15.718-11.975 22.54-8.794 6.779 3.161 12.82 11.1 7.698 20.625-6.02 11.194-15.4 29.672-19.46 38.808z" transform="rotate(-1.094 31428.2 -51190.512)" style="display:block"/><g style="display:block"><path fill="#FFC6B7" d="M1639.969 458.026c-5.648-7.833-15.858-10.952-24.826-4.94-7.904 5.299-10.597 15.255-4.455 23.47 5.604 7.494 15.865 10.336 24.822 4.69 8.967-5.653 10.106-15.387 4.459-23.22z"/><path stroke-linecap="round" stroke="#EE9583" stroke-width="3.796" d="M1624.452 463.57c3.26 1.705 6.319 5.56 6.122 8.045" fill="none"/><path stroke-linecap="round" stroke-linejoin="round" stroke="#FFC6B7" stroke-width="12" d="M1616.96 457.295c-.133-4.11-1.554-8.391.907-12.06m21.15-1.432c-6.673-.852-14.631 6.37-14.35 9.882m24.304-1.986c-4.28.678-16.207 2.969-16.019 8.842m17.577 4.26c-4.074-2.648-10.75-.824-12.478 3.847" fill="none"/></g></g><g clip-path="url(#bq)" style="display:block" transform="matrix(-1 0 0 1 1976 -43.5)"><path fill="#58CC02" d="M303.202-41.464c15.252 94.999-16.572 140.035-80.655 155.537-84.448 20.428-144.155-35.09-168.05-85.71C36.399-9.976 30.855-63.219 30.879-84.264c-1.25-43.158 10.268-88.21 48.833-104.742 17.561-7.529 35.654-9.48 49.425-3.949 21.342 8.572 29.874 14.059 37.708 17.858 4.295 2.082 127.533 78.67 136.357 133.633zm15-4c15.252 94.999-31.572 144.035-95.655 159.537-84.448 20.428-134.794-43.146-151.05-96.71C16-165.5 159.011-178.897 166.845-175.097a21.628 21.628 0 0 0 13.84 1.73c13.814-2.88 29.98-12.82 53.26-22.683 29.61-12.527 71.293 3.672 71.603 42.932 0 0 3.83 52.691 12.654 107.654z" transform="rotate(-2.206 16296.384 -26588.583)" style="display:block"/><path fill="#58CC02" d="M194.4-10.921c41.197 33.255 100.112 36.257 145.734 6.363 45.621-29.893 66.603-85.246 52.867-136.495-2.857-10.667-15.283-15.388-24.539-9.323L195.78-37.227c-9.256 6.065-9.954 19.384-1.38 26.306z" transform="rotate(16.476 -1252.582 3828.815)" style="display:block"/><path fill="#58CC02" d="M198.976.515c-26.37 45.909-80.206 70.027-133.554 58.669C12.074 47.826-27.518 3.817-33.258-48.93c-1.195-10.977 8.679-19.874 19.504-17.569L188.17-23.511C198.993-21.206 204.464-9.04 198.976.515z" transform="rotate(-20.887 2240.752 -2516.709)" style="display:block"/><path stroke-linecap="round" stroke-linejoin="round" stroke="#F49000" stroke-width="35" d="M256.25 102.5 260 74.75" fill="none" transform="rotate(3.169 -9889.08 19180.744)" style="display:block"/><path stroke-linecap="round" stroke-linejoin="round" stroke="#F49000" stroke-width="35" d="m138 147-27-7.75" fill="none" transform="rotate(8.543 -3309.28 7379.321)" style="display:block"/><g mask="url(#bs)" style="display:block"><path fill="#89E219" d="M1233.14 621.837c-.726 8.626-7.141 16.072-15.997 18.303-8.856 2.231-17.95-1.307-22.555-8.59-.958-1.515-.098-3.534 1.698-3.987l34.012-7.473c1.797-.445 2.993-.048 2.842 1.747zm-58.057 13.921c-2.162 8.376-9.734 14.6-18.84 15.26-9.106.66-17.48-4.41-20.8-12.39-.69-1.66.496-3.5 2.343-3.634l34.467-2.497c1.847-.134 3.28 1.518 2.83 3.261zm35.483 19.146c-1.366 8.378-8.322 15.177-17.323 16.697-9.003 1.518-17.812-2.621-21.865-10.086-.843-1.551.166-3.462 1.992-3.77l33.59-6.102c1.825-.313 3.89 1.518 3.606 3.261zm22.107-68.694c-22.261 1.58-42.372-10.286-52.35-28.706-8.174.55-14.1.938-17.766 1.188-6.515.448-11.85.819-15.997 1.115-5.377 19.556-18 33.524-35.442 35.065-20.547 1.816-41.41-21.814-44.212-51.939-2.116-22.744-2.517-33.985-1.052-46.25 1.573-13.163 6.356-22.689 13.734-29.626.28-11.91 9.21-22.192 13.599-22.438 2.47-.139 2.32.711 2.3 14.047 4.1-17.869 12.982-23.585 16.975-26.769 5.002-3.985 10.986-6.059 11.468 2.156.237 3.908 4.212 47.03 29.01 47.544 2.34.048 3.84.028 6.786-.312 15.356-1.77 43.983-34.686 55.117-48.22 6.927-8.42 11.475-6.93 13.273-4.317 4.09 5.933 5.635 12.195 4.84 18.594l9.29-12.071c1.827-2.364 5.428-2.282 7.122.174 4.406 6.388 6.309 14 5.68 21.497 14.93 8.906 25.404 24.73 26.735 43.386l1.924 27.056c2.158 30.33-20.69 56.672-51.034 58.826z"/></g><g style="display:block"><path fill="#F49000" d="M1187.196 555.95c-.753-10.595-9.952-18.572-20.547-17.818-9.999.71-17.773 8.98-17.867 19.004l-.058 28.494c-.112 11.939 9.988 21.433 21.896 20.586 11.265-.8 19.746-10.582 18.945-21.846l-2.369-28.42z"/><path fill="#B16900" d="M1180.412 558.03c.11-8.207-6.824-14.751-15.01-14.169-7.266.517-12.925 6.512-13.022 13.795l-.165 27.379c-.11 8.207 6.824 14.75 15.01 14.169 7.267-.517 12.925-6.511 13.023-13.795l.164-27.378z"/><path fill="#FFB8D1" d="M1180.479 568.448c-.168.009-.337.018-.505.03-12.621.898-22.126 11.857-21.228 24.478.112 1.582.384 3.115.796 4.584a13.93 13.93 0 0 0 7.689 1.664c7.266-.517 12.924-6.512 13.022-13.796l.226-16.96z"/><path fill="#FFC200" d="M1135.847 559.925c-.123.743.324 1.454 1.036 1.703l10.244 2.256 41.177-6.232c.922-.17 1.507-1.09 1.21-1.98-3.915-11.719-15.379-20.018-28.274-19.102-13.05.928-23.345 10.99-25.393 23.355z"/><path fill="#FFDE00" d="M1165.202 548.046c2.107.78 4.388-.37 5.122-2.465.734-2.095-.325-4.534-2.465-5.122-4.178-1.148-9.301-1.017-13.376.858-2.016.928-2.95 3.269-2.054 5.3.897 2.03 3.255 2.916 5.3 2.054 1.755-.74 5.365-1.405 7.473-.625z"/></g><g style="display:block"><path fill="#FFF" d="M1265.164 525.549c1.501 21.106-14.393 39.433-35.5 40.933-21.106 1.501-39.433-14.392-40.933-35.499l-1.53-21.497c-1.5-21.107 14.394-39.433 35.5-40.934 21.107-1.5 39.434 14.393 40.934 35.5l1.53 21.497zm-129.396 9.2c1.501 21.106-10.402 39.15-26.588 40.3-16.183 1.151-30.522-15.026-32.023-36.132l-1.529-21.498c-1.5-21.106 10.405-39.15 26.588-40.3 16.186-1.15 30.523 15.026 32.023 36.133l1.53 21.497z"/><path fill="#4B4B4B" d="M1101.251 534.14c.823 9.89 7.824 17.366 15.646 16.72 7.812-.654 13.478-9.201 12.655-19.081l-1.597-19.09c-12.463 6.568-20.4-10.237-11.964-16.571-.663-.261-2.565-.376-3.682-.14-9.624 1.989-13.495 11.622-12.286 23.447.958 9.478 1.228 14.714 1.228 14.714zm94.835-6.946c.394 9.906 8.748 17.624 18.654 17.231 9.915-.393 17.624-8.748 17.23-18.663l-.757-19.142c-13.468 5.462-19.189-9.433-15.09-17.018a18.21 18.21 0 0 0-3.563-.213c-1.92.076-3.745.45-5.446 1.074-9.786 4.142-11.858 15.14-11.616 21.968.242 6.837.588 14.763.588 14.763z"/><path fill="#8EDF00" d="M1102.341 469.767c-25.953 2.23-30.016 15.767-30.934 23.883-1.935 17.101 2.262-1.02 2.262-1.02 16.406-25.836 47.488-25.175 65.28 11.346 3.974-20.446-.354 1.177-2.772-13.428-2.417-14.605-15.344-22.37-33.836-20.781zm-18.374 107.922c6.137 2.864 8.444 7.084 23.052 9.736 14.608 2.652 10.967 2.755 13.221 3.077-3.778-2.052-29.883-9.702-36.273-12.813zm139.144-113.686c-30.95.113-40.878 21.037-40.11 38.257.769 17.22.388 1.248.388 1.248 7.03-49.064 59.531-49.27 81.071-18.463-.232-8.045 3.054 21.571 1.254 6.808-1.8-14.763-20.549-27.93-42.603-27.85zm-3.38 115.184c-12.658-1.706-16.668-2.402 7.322 1.756 19.315 3.348 31.745-5.657 40.663-16.93-5.482 6.476-25.602 16.247-47.985 15.174z"/></g></g><g clip-path="url(#bC)" style="display:block" transform="matrix(-1 0 0 1 1976 -43.5)"><path fill="#FFCBA3" d="M202.765-329.394c6.824 0 12.356 5.592 12.356 12.49 0 6.898-5.532 12.49-12.356 12.49s-12.356-5.592-12.356-12.49c0-6.898 5.532-12.49 12.356-12.49z" transform="rotate(.122 -225415.443 474290.535)" style="display:block"/><path fill="#FFB100" d="M217.951-321.992c-8.636-3.159-13.899.828-16.076 5.656-2.177 4.828-1.155 12.519 6.953 15.826 8.108 3.307 25.778 13.075 36.874 21.074 4.258 3.07 12.1 2.878 16.207-3.558 4.108-6.436.085-13.285-3.905-16.573-8.069-6.646-31.416-19.266-40.053-22.425z" transform="rotate(.122 -225415.695 474526.056)" style="display:block"/><path fill="#3D3D3D" d="M178.245-309.919c0 9.562-7.753 17.314-17.315 17.314-9.562 0-17.314-7.752-17.314-17.314 0-9.562 7.752-17.315 17.314-17.315 9.562 0 17.315 7.753 17.315 17.315zm-22.489-13.912c-13.51-11.937-14.787-32.569-2.85-46.08l22.652-26.694c11.937-13.512 32.567-14.788 46.08-2.85 14.325 12.657 14.76 34.86.938 48.067l-.997.597a94.767 94.767 0 0 0-10.584 11.98l-7.422 9.987c-11.403 15.344-33.49 17.65-47.817 4.993z" transform="rotate(.122 -277008.294 487425.187)" style="display:block"/><path fill="#E89665" d="M170.119-403.653c2.087.944 3.005 3.418 2.051 5.527-.954 2.109-6.986 5.386-6.986 5.386s-1.522-6.695-.568-8.804c.954-2.108 3.417-3.052 5.503-2.109z" transform="rotate(-2.591 13690.694 -22908.567)" style="display:block"/><path fill="#FFCBA3" d="M219.585-404.105c-21.544-12.439-49.093-5.057-61.532 16.488-12.439 21.545-5.057 49.093 16.487 61.532l29.192 16.854 45.045-78.02-29.192-16.854z" transform="rotate(.122 -276989.87 487150.949)" style="display:block"/><g style="display:block"><path fill="#FFB100" d="M1222.248 204.64c-20.2 27.423-21.113 91.193 47.791 114.286l35.329-57.421 33.726-61.854c-52.799-29.186-91.206-29.82-116.846 4.99z"/><path fill="#FFF" d="M1257.935 199.116c2.091 2.073 1.853 5.704-.533 8.112-2.387 2.408-6.015 2.68-8.107.607-2.091-2.072-1.853-5.704.533-8.112 2.387-2.408 6.015-2.679 8.107-.607zm-31.354-7.82c24.123 11.482 44.271-9.469 37.313-12.893-3.963.233-9.537 2.192-14.284 3.752-9.712-1.038-18.012 3.89-23.03 9.142zm-15.25 30.771c17.739 7.116 41.626-21.61 22.954-32.65-5.037 3.052-18.562 15.149-22.954 32.65z"/><path fill="#FF9500" d="M1287.558 249.453c-19.133 32.977-27.352 63.817-17.947 69.274 9.406 5.457 32.253-16.968 51.386-49.945 19.133-32.978 27.307-64.02 17.901-69.477-9.405-5.457-32.207 17.17-51.34 50.148zm-37.898-67.301c16.832.936 39.007 8.436 55.22 16.68a7.99 7.99 0 0 0 8.157-.56c2.878-1.98 6.904-4.661 11.335-6.293-30.532-14.545-55.034-17.904-74.712-9.827zm-34.826 36.483c-10.07 27.03-5.42 67.977 34.731 91.175-4.027-14.77 8.207-46.026 13.92-59.823 1.587-3.83 0-8.238-3.676-10.157-9.978-5.213-29.762-15.382-44.975-21.195z"/></g><path fill="#FFCBA3" d="M208.585-408.855c-7.835-3.645-36.835-2.645-50.532 21.238-12.377 21.58-5.057 49.093 16.487 61.532 0 0 2.21 1.585 4.192 2.604C165-376.5 201.25-403.25 213.777-407.001c-1.277-.999-5.192-1.854-5.192-1.854z" transform="rotate(.122 -277008.028 487189.666)" style="display:block"/><g style="display:block"><path fill="#9F9F9F" d="M1188.589 210.406c-5.385 16.41-1.092 35.075 11.342 46.983 4.043-18.121-.041-38.224-11.342-46.983z"/><path fill="#B23232" d="m1215.763 197.887 1.508 3.178a5.977 5.977 0 0 1-2.874 7.978c-3.008 1.412-6.598.129-8.02-2.866l-1.508-3.178a5.977 5.977 0 0 1 2.873-7.979c3.009-1.412 6.6-.129 8.02 2.867z"/></g><g mask="url(#bD)" style="display:block"><path fill="#F14C4C" d="M1211.282 203.35a6.5 6.5 0 0 1 5.646 3.4 5.998 5.998 0 0 1-10.596-.432l-.233-.486a6.493 6.493 0 0 1 5.183-2.483z"/></g><g mask="url(#bE)" style="display:block"><path fill="#FFF" d="M1194.258 179.67c2.595-4.659 5.785-7.83 7.125-7.085.049.028 1.754 1.004 1.803 1.03 1.277.712.089 5.202-2.412 9.691-2.5 4.488-5.694 7.863-6.97 7.152l-1.82-1c-1.34-.746-.322-5.129 2.274-9.788zm-11.746 21.22c2.596-4.658 5.786-7.83 7.125-7.084.05.027 1.755 1.002 1.804 1.03 1.277.71.088 5.202-2.413 9.69-2.5 4.489-5.692 7.863-6.97 7.152l-1.82-1c-1.34-.747-.321-5.128 2.274-9.787z"/><path fill="#4B4B4B" d="M1184.277 198.878c1.244-2.232 2.772-3.752 3.413-3.394.024.013 1.245.617 1.268.63.612.34.042 2.493-1.156 4.643-1.197 2.15-2.727 3.766-3.339 3.425-.023-.013-1.252-.603-1.275-.616 1.973-2.451 2.583-5.04 1.09-4.688zm9.161-16.615c1.244-2.231 2.772-3.751 3.414-3.394.023.014 1.244.618 1.267.631.612.34.042 2.493-1.156 4.643-1.197 2.15-2.727 3.767-3.339 3.426-.023-.013-1.252-.603-1.276-.616 1.974-2.452 2.584-5.041 1.09-4.69z"/><path stroke-linecap="round" stroke-linejoin="round" stroke="#E89665" stroke-width="3" d="m-50.353 5.574 8.892 4.251-8.985 3.287m74.943-6.57L17.39 8.811l8.055 3.69" fill="none" transform="matrix(.42319 -.75965 .2184 .12167 1196.117 181.798)"/></g><path fill="#FFCBA3" d="M200.257-328.22c6.939 0 12.564 5.685 12.564 12.7 0 7.013-5.625 12.699-12.564 12.699s-12.564-5.686-12.564-12.7c0-7.014 5.625-12.7 12.564-12.7z" transform="rotate(.122 -253183.205 451886.752)" style="display:block"/><path fill="#FFB100" d="M213.636-324.242c-9.26-1.383-13.537 3.726-14.695 8.988-1.158 5.262 1.227 12.663 9.99 14.302 8.764 1.639 28.94 7.643 41.466 13.013 4.835 2.063 12.476.235 15.128-6.95 2.651-7.187-2.755-13.042-7.37-15.412-9.33-4.79-35.26-12.558-44.519-13.941z" transform="rotate(.122 -253419.2 452357.556)" style="display:block"/><path stroke-linecap="round" stroke-linejoin="round" stroke="#FF9500" stroke-width="12" d="M370.75-299.25s8.088 1.366 12 6.25" fill="none" transform="rotate(.194 -158399.492 283220.881)" style="display:block"/><path stroke-linecap="round" stroke-linejoin="round" stroke="#FF9500" stroke-width="12" d="M349-258.75s6.808 6.045 8 12.25" fill="none" transform="rotate(-.02 1892843.589 -3366244.887)" style="display:block"/><g style="display:block"><path stroke-linecap="round" stroke-linejoin="round" stroke="#00BDFF" stroke-width="7" d="m1167.267 162.221 6.61-3.159m-.931 13.505 5.734-3.03m-6.613 9.619c8.927 1.279 14.217 6.764 20.97.071" fill="none"/><path fill="#00BDFF" d="M1119.441 191.218c-2.094.45-3.803-1.684-2.907-3.628l2.486-5.397 6.23 7.776-5.809 1.249zm-4.291-8.945c-1.757-1.224-1.363-3.93.67-4.6l5.642-1.863-1.438 9.859-4.874-3.396zm24.508 14.252c-9.802 2.21-19.54-3.946-21.75-13.747-2.209-9.803 3.947-19.54 13.749-21.75 0 0 11.594-2.523 19.854-6.184 8.26-3.66 19.896-1.246 24.567 7.65 4.67 8.896.88 19.663-7.65 24.566-8.532 4.903-28.77 9.465-28.77 9.465z"/><path fill="#FFF" d="M1138.88 188.353a6.173 6.173 0 0 1-7.757-4.003l-2.24-7.017a6.173 6.173 0 0 1 11.76-3.754c.002 0 2.24 7.016 2.24 7.016a6.173 6.173 0 0 1-4.002 7.758z"/><path fill="#FFA3A3" d="M1133.55 178.628c.562.27.78.955.48 1.5l-.825 1.49c-.46.832-1.69.71-1.98-.194l-.71-2.228c-.29-.905.643-1.718 1.5-1.306l1.535.738z"/><path fill="#00729A" d="M1129.36 183.972a2.274 2.274 0 1 0-4.443-.97 2.274 2.274 0 0 0 4.444.97zm-1.166-3.802a2.273 2.273 0 1 0-4.443-.969 2.273 2.273 0 1 0 4.443.969z"/></g></g><g clip-path="url(#bK)" style="display:block" transform="matrix(-1 0 0 1 1916 -23.5)"><g style="display:block"><path fill="#4CC5FF" d="M1602.322 789.587c3.514-4.976 10.397-6.161 15.373-2.646l18.854 13.318c4.977 3.516 6.162 10.397 2.647 15.373l-3.39 4.8c-7.05 9.68-14.103 6.213-25.966.072-11.167-6.72-18.304-14.796-12.009-24.373l4.49-6.544z"/><path fill="#1CB0F6" d="M1616.038 805.803c-8.33-5.57-10.748-12.54-7.705-17.152 4.76-7.217 17.71-23.604 26.39-31.368 5.782-5.17 26.138-15.633 47.872-22.425 9.602-2.999 19.816 2.351 22.817 11.953 3 9.6-2.351 19.816-11.951 22.817-11.792 3.688-31.075 12.979-34.795 15.158-2.779 3.022-14.185 14.938-20.085 23.911-3.806 5.79-15.02 2.136-22.543-2.894z"/><path stroke-linecap="round" stroke="#FF4B4B" stroke-width="12.767" d="M1584.735 825.952c9.484 4.248 20.996.757 20.996.757" fill="none"/></g><g style="display:block"><path fill="#A46648" d="m1659.125 672.522 24.15 36.633c4.033 5.322 11.616 6.367 16.938 2.335 5.321-4.031 6.367-11.613 2.334-16.936l-30.447-29.87a7.58 7.58 0 1 0-12.975 7.84z"/><path stroke-linecap="round" stroke-linejoin="round" stroke="#A46648" stroke-width="6.622" d="m1652.251 665.143 8.13 2.53m-2.76-12.793 2.49 7.687m2.932-8.694.878 9.41m5.263-5.85-1.183 5.754" fill="none"/></g><g style="display:block"><path fill="#3D3D3D" d="m1721.605 645.447 25.939-18.595c9.473-6.78 22.65-4.598 29.43 4.876l6.577 9.188c6.78 9.474 4.597 22.65-4.877 29.432l-8.217 5.88c-9.473 6.781-22.65 4.598-29.43-4.876l-19.422-25.905zm9.547-5.414-15.129 44.99-27.092-9.745c-9.873-3.817-14.783-14.915-10.966-24.788l3.702-9.576c3.816-9.873 14.914-14.782 24.786-10.965l24.7 10.084zm25.094 20.39c1.05 10.534-50.849 15.7-51.898 5.168l-3.368-33.822c-1.049-10.533 6.64-19.922 17.173-20.97l13.754-1.37c10.534-1.049 19.922 6.64 20.972 17.172l3.367 33.823z"/><path fill="#A46648" d="m1734.268 714.417-36.963-12.852c-8.264-2.873-13.135-11.41-11.403-19.987l4.842-23.977a14.638 14.638 0 0 1 10.797-11.008l27.796-6.814c6.527-1.6 13.42.21 18.32 4.806l11.208 13.54a26.795 26.795 0 0 1 4.599 26.082l-6.924 19.424c-3.17 9.13-13.143 13.96-22.272 10.786z"/><path fill="#FDB02A" d="m1762.222 687.69 1.242-3.483a26.795 26.795 0 0 0-4.599-26.082l-11.207-13.54a19.867 19.867 0 0 0-18.32-4.806l-14.433 3.538c11.4 2.908 33.238 11.946 47.317 44.373zm-47.317-44.373-13.364 3.276a14.638 14.638 0 0 0-10.797 11.008l-1.667 8.255c8.347-11.72 25.828-22.54 25.828-22.54zm.73-1.428c.222.697-.273 1.361-1 1.441-6.528.719-13.925-3.017-15.347-10.657-.133-.719.27-1.419 1.001-1.442 9.684-.3 13.682 5.431 15.346 10.658zm-.62 1.373a1.102 1.102 0 0 1-1.44-1c-.216-4.189.48-12.238 10.657-15.347.7-.214 1.405.27 1.441 1 .383 7.664-3.276 12.992-10.658 15.347z"/><path fill="#A46648" d="M1761.067 677.811a8.151 8.151 0 0 1-10.599 4.537 8.151 8.151 0 0 1-4.537-10.599 8.152 8.152 0 0 1 10.6-4.537 8.152 8.152 0 0 1 4.536 10.6z"/></g><g style="display:block"><path fill="#FFF" d="M1712.63 661.463c.316-3.94 3.839-7.275 7.732-7.32 3.894-.046 6.577 3.22 5.885 7.163l-1.347 7.691c-.611 3.485-3.796 6.255-7.237 6.293-3.44.039-6.41-1.468-6.132-4.948l1.1-8.879z"/><path fill="#A46648" d="M1710.575 673.694c1.655-2.606 11.654-5.955 15.821-5.117l-4.161 9.378c-6.221 1.328-11.66-4.26-11.66-4.26z"/><path stroke-linecap="round" stroke="#86401F" stroke-width="4" d="M1696.19 668.252c4.286-3.204 8.587.605 8.587.605" fill="none"/><path fill="#86401F" d="M1709.095 669.352c.1.014 1.977 3.41 1.793 4.736a2.425 2.425 0 0 1-4.804-.664c.184-1.326 2.911-4.086 3.011-4.072zm-.538 7.12-2.098.132a2.497 2.497 0 0 1-.312-4.984l2.098-.132a2.498 2.498 0 0 1 .312 4.984z"/><path fill="#A41414" d="M1723.823 679.848c-1.532 5.941-11.56 10.358-18.791 6.172-2.136-1.236-1.346-4.227.977-5.06 3.182-1.144 5.985-2.995 8.57-5.487 2.584-2.491 5.879-3.184 7.934-.756 1.077 1.271 1.863 2.986 1.31 5.131z"/><path stroke-linecap="round" stroke="#3D3D3D" stroke-width="6.095" d="m1720.63 660.815-.398 4.959" fill="none"/><path fill="#E64340" d="M1713.335 684.167c-1.388-2.341.157-5.825 3.452-7.78 2.162-1.282 4.538-1.588 6.31-.986.762 1.172 1.184 2.638.776 4.416-.838 3.656-4.406 5.61-6.014 6.32-1.96.121-3.683-.553-4.524-1.97z"/><path fill="#E7E7E7" d="M1718.746 677.203a5.596 5.596 0 0 1-9.28 2.176c1.85-1.03 2.868-1.676 5.163-3.937 2.295-2.26 5.88-3.184 7.936-.755.284.336.545.703.765 1.1-.34.346-1.515 2.266-4.584 1.416z"/></g><path fill="#FDB02A" d="m749.545 173.4-6.236 3.947c-11.545 7.307-26.828 3.871-34.135-7.675l-3.946-6.236c-7.229-11.421-3.83-26.538 7.59-33.766 14.99-9.487 34.832-5.027 44.319 9.963 7.228 11.421 3.829 26.539-7.592 33.767zm-2.502-9.683-33.434-7.517 4.609-20.499c2.076-9.233 11.242-15.035 20.475-12.959 9.232 2.076 15.034 11.242 12.958 20.475l-4.608 20.5z" transform="rotate(3.058 -9454.287 18742.472)" style="display:block"/><path fill="#1CB0F6" d="M740.472 155.971c10.32 11.635 9.254 29.433-2.381 39.753s-29.433 9.254-39.753-2.381-9.254-29.433 2.381-39.753 29.433-9.254 39.753 2.381z" transform="rotate(3.058 -9463.653 18742.222)" style="display:block"/><g style="display:block"><path stroke-linecap="round" stroke-linejoin="round" stroke="#A46648" stroke-width="13" d="m1757.634 726.306 4.626-24.814m4.412 24.268 13.48-13.331" fill="none"/><path fill="#A46648" d="m1725.736 727.12 12.275 19.996 30.401-24.507s-28.262-6.824-31.046-7.296c-3.09-.643-6.557-1.44-9.276.543a8.586 8.586 0 0 0-2.354 11.264zm51.51 9.076-.043-.415c-.621-5.71-3.258-10.709-7.072-14.27-4.225-3.947-9.892-6.129-15.862-5.559-11.357 1.085-18.823 11.607-17.526 23.525l.044.41c1.296 11.918 10.906 21.157 22.264 20.07 11.358-1.087 19.503-11.725 18.196-23.761z"/><path stroke-linecap="round" stroke="#86401F" stroke-width="4" d="m1741.895 730.888 11.899-7.555c3.017-1.916 7.086-1.174 9.088 1.657 0 0 0 0 0 0 2.003 2.83 1.18 6.678-1.837 8.593l-11.899 7.554" fill="none"/></g><g style="display:block"><path fill="#1CB0F6" d="M1695.151 769.415c-8.912.802-17.566-4.497-20.644-13.33-1.15-3.3-2.632-7.271-4.526-11.32-6.046 4.874-9.589 11.045-14.845 17.014-7.27 8.253-19.853 9.051-28.106 1.782-8.253-7.27-9.052-19.854-1.783-28.106.31-.35 8.736-8.697 17.186-16.863 16.71-16.147 25.715-22.39 35.573-21.189a20.711 20.711 0 0 1 13.256 7.1c11.225 12.718 17.344 28.005 20.978 38.43 3.633 10.418-1.87 21.81-12.29 25.444a20.062 20.062 0 0 1-4.799 1.038z"/><path stroke-linecap="round" stroke-linejoin="round" stroke="#0395DB" stroke-width="4" d="m1656.108 758.23 13.285-15.11s6.34 21.644 14.193 23.824" fill="none"/><path fill="#5EC6FF" d="M1645.342 775.297c-3.175 3.583-13.045.02-22.046-7.955-9-7.977-13.723-17.347-10.548-20.93.818-.924 10.437-11.592 12.446-13.755 3.235-3.483 13.114.36 21.756 7.85 8.642 7.49 13.638 16.984 10.51 20.915-3.13 3.932-11.69 13.394-12.118 13.875z"/><path stroke-linecap="round" stroke="#33B4F7" stroke-width="4.078" d="M1618.113 747.723c4.26.82 9.814 3.827 15.002 8.456 5.188 4.628 8.807 9.805 10.105 13.945" fill="none"/><path stroke-linecap="round" stroke="#FF4B4B" stroke-width="13.049" d="M1605.976 752.893c5.565 8.4 15.095 15.105 15.095 15.105" fill="none"/></g></g><g clip-path="url(#bO)" style="display:block" transform="matrix(-1 0 0 1 1916 -23.5)"><path fill="#FFB7E3" d="M467.017-248.933s-21.285-1.263-52.276-3.165c-15.682-.962-21.741 12.598-21.142 21.885.599 9.287 9.345 23.196 24.422 18.787 30.521-8.926 62.293-17.748 62.293-17.748l-13.297-19.759z" transform="rotate(5.198 -5311.651 10779.518)" style="display:block"/><g style="display:block"><path fill="#FFB7E3" d="M1390.644 312.075c-30.714-4.65-45.015-6.733-59.109-8.398-14.093-1.665-25.964 15.814-24.838 31.707 1.132 16.006 15.1 28.905 29.305 26.845 14.24-2.063 23.07-3.326 54.223-9.352 15.354-2.97 18.594-12.186 19.057-19.676.464-7.491-3.06-18.768-18.638-21.126z"/><path fill="#FF9BDE" d="M1348.315 338.035c-2.928 12.76-13.685 21.036-24.025 18.488-10.34-2.55-16.349-14.958-13.42-27.717 2.928-12.76 13.686-21.037 24.026-18.488 10.34 2.548 16.348 14.958 13.42 27.717z"/></g><path stroke-linecap="round" stroke-linejoin="round" stroke="#FF7AD5" stroke-width="28.88" d="M333.049-229.749c4-8.5 10.107-20.223 16.12-28.68" fill="none" transform="rotate(-8.139 4732.32 -6797.945)" style="display:block"/><path stroke-linecap="round" stroke-linejoin="round" stroke="#FF86D0" stroke-width="15" d="M502.881-191.052c.376-4.651-.544-10.655-2.324-15.564" fill="none" transform="rotate(-28.818 2099.34 -1817.627)" style="display:block"/><path fill="#FFB7E3" d="M477.637-216.167c-7.613 5.833-.003.004-.006.006 0 0-18.631 14.661-50.031 23.985-8.308 2.467-15.805 6.766-15.948 15.431-.142 8.665 6.764 15.82 15.43 15.948 28.668.422 61.793-23.578 70.09-30.808 7.129-6.212 7.901-15.269 2.504-22.049-5.394-6.777-14.426-8.346-22.039-2.513z" transform="rotate(2.665 -11291.434 21024.367)" style="display:block"/><path fill="#FFB7E3" d="M457.463-227.353c-11.621 5.879-32.272 15.702-43.279 41.145-11.007 25.443 20.779 26.539 27.111 14.999 7.705-14.041 24.272-24.118 27.134-26.05 17.148-11.237 6.297-41.165-10.961-30.097" transform="rotate(1.672 -18542.457 33452.709)" style="display:block"/><path fill="#FFB3E6" d="M528.609-252.517c-1.324-2.088 4.65-9.711 4.65-9.711l14.956 10.268a12.758 12.758 0 0 0 7.223 2.241l22.195.002c4.776 0 7.827 5.094 5.572 9.305l-2.776 5.185a32.342 32.342 0 0 0-3.439 10.258c-.964 6.153-7.198 9.99-13.126 8.079l-5.291-1.706a42.078 42.078 0 0 1-26.151-24.402l-3.813-9.519z" transform="rotate(-3.478 10396.497 -16027.655)" style="display:block"/><g style="display:block"><path fill="#FFB7E3" d="M1468.804 301.83c17.933 13.812 21.273 39.545 7.461 57.478-6.688 8.685-19.572 15.508-32.695 12.7-14.062-3.009-23.319-15.176-29.467-25.098-3.671-5.923-6.134-11.19-7.457-17.89-1.322-6.701.222-14.309 4.68-19.727 14.384-17.479 39.545-21.274 57.478-7.463z"/><path fill="#FF86D0" d="M1484.5 339.083a41.1 41.1 0 0 0 .263-5.662l-7.074-15.566-19.192-21.813a40.495 40.495 0 0 0-3.849-1.264l-5.993-1.172-.068-.01c-8.049 7.482-9.335 21.199-2.06 31.585 8.56 12.22 22 18.864 37.974 13.902z"/><path fill="#FFB3E6" d="M1459.656 330.865a.666.666 0 0 1 .978-.035l2.764 2.782c.246.246.26.642.032.906l-4.332 4.998a.666.666 0 0 1-.94.067l-2.936-2.547a.667.667 0 0 1-.069-.939l4.503-5.232zm-13.157-22.77a.666.666 0 0 1 .898.388l1.3 3.7a.666.666 0 0 1-.362.832l-6.06 2.65a.666.666 0 0 1-.877-.344l-1.557-3.562a.667.667 0 0 1 .343-.877l6.315-2.788z"/><path fill="#1CB0F6" d="M1456.961 288.298c27.388-2.37 40.45 20.58 33.547 40.12l-.884 2.498c-3.07 8.692-22.782 12.414-35.74-5.39-15.127-18.99-7.213-35.902 3.077-37.228z"/></g><path stroke-linecap="round" stroke-linejoin="round" stroke="#1CB0F6" stroke-width="21" d="M488.816-355.366s1.983 26.801 2.165 39.259c.184 12.632-1.068 36.012-1.068 36.012" fill="none" transform="rotate(.406 -79300.55 137507.042)" style="display:block"/><path stroke-linecap="round" stroke="#1CB0F6" stroke-width="21" d="M510.49-244.493s25.264 2.064 37.916 2.491c15.129.512 45.373.322 45.373.322" fill="none" transform="rotate(.406 -79300.55 137507.042)" style="display:block"/><path fill="#E18E70" d="M495.071-354.738c-6.063 6.951-16.614 7.671-23.566 1.608-6.952-6.064-7.672-16.615-1.609-23.566 6.064-6.952 16.615-7.673 23.567-1.609 6.952 6.064 7.671 16.615 1.608 23.567z" transform="rotate(.406 -79275.191 138418.056)" style="display:block"/><path fill="#E18E70" d="M592.492-232.902c-7.193-7.197-7.191-18.862.006-26.057 7.198-7.194 18.865-7.191 26.058.006 7.194 7.198 7.191 18.864-.007 26.058-7.198 7.194-18.862 7.19-26.057-.007z" transform="rotate(.406 -79698.363 137288.446)" style="display:block"/><path fill="#FFB3E6" d="M606.933-297.91c-9.289 35.122-45.292 56.063-80.414 46.774-35.122-9.29-56.063-45.292-46.774-80.414 9.289-35.122 45.292-56.063 80.414-46.774 35.122 9.289 56.063 45.292 46.774 80.414z" transform="rotate(3.513 -8285.482 15839.09)" style="display:block"/><g style="display:block"><path fill="#E18E70" d="M1523.794 236.31c18.37 16.271 21.144 43.217 6.194 60.187s-38.222 18.58-56.593 2.31c-18.37-16.272-24.883-44.26-9.933-61.23s41.962-17.538 60.332-1.267z"/><path fill="#A70000" d="M1474.363 293.482c-1.192 3.59 2.236 11.086 16.741 15.133 14.505 4.046 17.68-5.203 18.376-7.297.695-2.095 2.352-11.223-4.803-13.219-5.608-1.565-12.979 3.135-19.942 1.193-6.963-1.943-9.18.6-10.372 4.19z"/><path fill="#FFF" d="M1504.678 288.1c-2.653-.74-5.7-.078-8.912.62-3.578.776-7.362 1.597-11.03.573-3.226-.9-5.433-.837-6.992-.154 1.711 2.096 4.87 4.222 9.833 5.76 9.083 2.785 16.912.601 21.544-2.344-.404-2.212-2.212-3.833-4.443-4.455z"/><path fill="#9E4D31" d="M1485.175 274.741c.124.113-.256 6.441-1.585 8.263-1.319 1.81-4.4 1.635-6.036.151-1.635-1.483-1.615-3.497-.11-4.995 1.307-1.539 7.608-3.53 7.73-3.419zm-14.173-18.998c-.8-.127-1.287-.903-1.084-1.733.202-.83 1.018-1.4 1.819-1.273 5.74.912 9.008 4.23 10.7 7.987 1.665 3.694 1.81 7.798 1.435 10.493-.116.84-.875 1.488-1.694 1.449-.817-.039-1.386-.75-1.269-1.59.313-2.247.184-5.767-1.216-8.874-1.372-3.045-3.961-5.707-8.691-6.459zm38.916 26.913c.474.66 1.436.84 2.148.405.711-.434.904-1.32.43-1.98-3.606-5.012-8.438-7.026-12.992-7.456-4.484-.423-8.667.687-11.196 1.86-.763.353-1.068 1.212-.683 1.917.386.706 1.317.991 2.081.638 2.102-.974 5.697-1.93 9.494-1.571 3.727.351 7.679 1.963 10.718 6.187z"/><path fill="#3B3B3B" d="M1550.146 265.728c.222-1.642-1.54-3.057-3.082-2.928-1.595.327-3.653.084-6.161-1.197-4.301-2.136-7.919-28.327-35.748-36.796-9.662-3.148-25.067-1.952-26.357 2.774-3.578 13.613 1.568 39.588 32.497 48.85 27.684 8.477 36.134-2.783 38.851-10.703z"/></g></g><g clip-path="url(#bY)" style="display:block" transform="matrix(-1 0 0 1 1916 -23.5)"><g mask="url(#bZ)" style="display:block"><g clip-path="url(#ca)"><path stroke-linecap="round" stroke-linejoin="round" stroke="#3D3D3D" stroke-width="24" d="M541.75 368c5.75 8.75 22.071 22.16 22.071 22.16s9.503.38 25.471-.07" fill="none" transform="rotate(-10 4050.077 -4835.871)" style="display:block"/><path fill="#3D3D3D" d="M512.018 280.06c14.429 0 26.125 14.439 26.125 32.25s-11.352 31.792-25.781 31.792c-14.429 0-27.084-13.935-27.084-31.746s12.311-32.296 26.74-32.296zm43.423 7.966c27.555.062 53.428 14.596 49.161 35.812-4.533 22.538-19.548 27.499-42.525 28.246-51.772 1.682-68.584-64.197-6.636-64.058z" transform="rotate(-10 4056.122 -4887.942)" style="display:block"/><path fill="#DB8D74" d="M521.5 303c-16.5 11-42 12.5-66 13.5s-53.834 22.53-51 52c2.5 26 27.5 43 54.5 43.5 30.012.556 61-2.5 100.5-24s36.5-55.5 23.5-77-45-19-61.5-8z" transform="rotate(-10 4091.52 -4911.194)" style="display:block"/><g mask="url(#cb)" style="display:block"><path fill="#FFAADE" d="M1468.863 840.933c12.495-6.279-148.707-11.635-120.33 94.2 32.625 121.684 217.518-7.033 184.848 5.993-17.789 7.093-43.037 9.84-57.511 4.971a48.399 48.399 0 0 1-8.417-3.738 44.922 44.922 0 0 1-7.232-5.082c-7.56-6.52-14.39-16.458-18.886-28.206-9.198-24.035 9.239-58.946 27.528-68.138zm-25.218 11.164s-115.231-2.266-95.866 81.646c19.366 83.912 140.333 28.855 140.333 28.855s-61.548-.74-73.94-42.277c-12.173-40.795 29.473-68.224 29.473-68.224zm-33.848 27.4-3.34 6.2 11.424-1.754 2.955-6.346-11.04 1.9zm17.846-23.117s-96.335 12.742-76.822 77.335c19.512 64.593 117.831 33.45 117.831 33.45s-48.92-3.776-62.292-45.11c-11.591-35.836 21.283-65.675 21.283-65.675zm-14.255 61.3-9.32 3.73 3.178 8.257 8.853-4.396-2.711-7.592z"/><path fill="#A56641" d="M1443.645 852.097s-115.231-2.266-95.866 81.646c19.366 83.912 140.333 28.855 140.333 28.855s-61.548-.74-73.94-42.277c-12.173-40.795 29.473-68.224 29.473-68.224z"/><path fill="#2CE69B" d="m1409.797 879.498-3.34 6.2 11.424-1.755 2.955-6.346-11.04 1.9zm17.846-23.118s-96.335 12.742-76.822 77.335c19.512 64.593 117.831 33.45 117.831 33.45s-48.92-3.776-62.292-45.11c-11.591-35.836 21.283-65.675 21.283-65.675zm-14.255 61.3-9.32 3.73 3.178 8.257 8.853-4.396-2.711-7.592z"/></g><g mask="url(#cc)" style="display:block"><path fill="#3D3D3D" d="M1459.794 802.944c-17.88 4.422-21.207 26.09-19.311 40.214 1.897 14.136 6.172 29.375 22.174 35.692 16.795 6.63 34.48-7.095 32.736-37.25-1.258-21.76-17.72-43.078-35.599-38.656z"/></g><path fill="#3D3D3D" d="M557.75 265.5c16.983 0 30.75 13.711 30.75 30.625s-13.767 30.625-30.75 30.625S527 313.039 527 296.125s13.767-30.625 30.75-30.625z" transform="rotate(-10 4050.02 -4784.77)" style="display:block"/><path fill="#DB8D74" d="M512.021 320.5c6.639 0 12.02 5.382 12.02 12.021 0 6.639-5.381 12.02-12.02 12.02-6.639 0-12.021-5.381-12.021-12.02 0-6.639 5.382-12.021 12.021-12.021z" transform="rotate(-10 4432.435 -6340.013) scale(.5 .75)" style="display:block"/><g style="display:block"><path fill="#B82C2C" d="M1490.73 904.731a2.511 2.511 0 0 1 3.405-1.008l26.812 14.57a2.511 2.511 0 0 1 1.008 3.406l-.14.258c-4.685 8.624-15.474 11.814-24.097 7.13-8.624-4.687-11.815-15.476-7.13-24.098l.141-.258z"/><path fill="#FD5050" d="M1508.733 931.06a17.69 17.69 0 0 1-11.016-1.974 17.713 17.713 0 0 1-8.487-10.347 17.65 17.65 0 0 1 11.026 1.965 17.668 17.668 0 0 1 8.477 10.357z" opacity=".8"/></g><path stroke-linecap="round" stroke-linejoin="round" stroke="#3D3D3D" stroke-width="24" d="M536.818 374.269c8.057 4.734 26.951 16.388 26.951 16.388l26.417.185" fill="none" transform="rotate(-10 4050.077 -4835.871)" style="display:block"/><g style="display:block"><path fill="#FFF" d="M1530.698 900.895s13.448-6.935 18.02-8.018c1.847-8.122 5.557-24.31-3.736-23.41-6.418.62-10.024 9.595-10.753 13.571l-3.531 17.857zm-7.44-30.018-.9-.313c-5.748-1.242-11.756 1.104-13.166 6.672l-3.508 13.67c11.09 1.673 20.347 8.774 20.347 8.774l3.725-16.4c.97-3.829-1.287-11.029-6.499-12.403z"/><path fill="#3D3D3D" d="M1536.667 880.914c.363-2.834 2.088-5.1 4.418-4.835 2.33.265 3.362 2.735 3 5.569l-.23 1.786c-.362 2.834-2.105 4.93-4.31 4.695-2.205-.236-3.47-2.595-3.107-5.43l.229-1.785zm-26.635-2.023c.583-2.764 3.635-4.346 5.58-3.984 1.944.361 3.8 3.138 3.216 5.902l-.367 1.74c-.583 2.764-3.385 4.469-5.33 4.107-1.944-.362-4.05-3.261-3.467-6.025l.368-1.74z"/></g><path stroke-linecap="round" stroke-linejoin="round" stroke="#3D3D3D" stroke-width="12" d="M568.75 333.5s7.5-2 11.5 1m17.608 3.473s7.344 2.513 8.997 7.232" fill="none" transform="rotate(-10 4023.292 -4817.698)" style="display:block"/><path fill="#DB8D74" d="M571.295 372.25c4.029 0 7.295 3.217 7.295 7.186s-3.266 7.186-7.295 7.186-7.295-3.217-7.295-7.186 3.266-7.186 7.295-7.186z" transform="rotate(-10 3858.903 -4490.175) scale(1.1)" style="display:block"/></g></g><g style="display:block"><path fill="#DB8D74" d="M1426.493 950.161c-7.73 3.36-18.578 7.44-15.624 17.876 2.65 9.367 14.43 8.408 22.008 4.914 3.97 4.667 9.756 1.05 7.45-3.816-3.862-8.145-7.338-21.798-13.834-18.974z"/><path stroke-linecap="round" stroke-linejoin="round" stroke="#FFAADE" stroke-width="25" d="m1431.217 928.247-.26 27.77" fill="none"/></g></g></g></svg>